{"glyphs":{"0":{"ha":847,"x_min":32,"x_max":818,"o":"m 818 656 l 818 313 q 793 192 818 249 q 726 92 768 135 q 626 25 683 50 q 506 0 569 0 l 344 0 q 224 25 281 0 q 124 92 167 50 q 57 192 82 135 q 32 313 32 249 l 32 656 q 57 776 32 719 q 124 876 82 833 q 224 942 167 918 q 344 967 281 967 l 506 967 q 626 942 569 967 q 726 876 683 918 q 793 776 768 833 q 818 656 818 719 m 708 313 l 708 656 q 506 860 708 860 l 344 860 q 142 656 142 860 l 142 313 q 344 110 142 110 l 506 110 q 708 313 708 110 m 676 656 l 676 313 q 506 140 676 140 l 344 140 q 172 313 172 140 l 172 656 q 344 828 172 828 l 506 828 q 676 656 676 828 m 568 313 l 568 656 q 550 700 568 682 q 506 718 532 718 l 344 718 q 300 700 318 718 q 282 656 282 682 l 282 313 q 300 268 282 286 q 344 250 318 250 l 506 250 q 550 268 532 250 q 568 313 568 286 z "},"1":{"ha":457,"x_min":39,"x_max":413,"o":"m 413 0 l 163 0 l 163 718 l 39 718 l 39 967 l 413 967 l 413 0 m 304 110 l 304 857 l 132 857 l 132 825 l 272 825 l 272 110 l 304 110 z "},"2":{"ha":818,"x_min":35,"x_max":775,"o":"m 633 639 q 605 541 633 574 q 533 495 576 508 q 439 482 490 482 q 342 482 388 482 q 272 467 307 482 q 208 426 236 451 q 163 367 181 400 q 144 297 144 333 l 144 108 l 678 108 l 678 139 l 175 139 l 175 301 q 183 332 175 313 q 196 361 190 351 q 241 417 215 399 q 297 444 267 436 q 359 451 326 451 q 425 451 392 451 q 491 453 458 450 q 554 468 524 456 q 598 494 579 478 q 628 527 617 511 q 645 555 639 543 q 651 567 651 567 q 664 617 663 593 q 665 669 665 642 q 651 742 665 708 q 611 802 636 776 q 552 842 586 828 q 479 857 518 857 l 114 857 l 114 825 l 479 825 q 549 809 519 825 q 597 767 578 793 q 624 708 615 742 q 633 639 633 674 m 775 639 q 751 524 775 578 q 688 429 728 469 q 593 365 647 389 q 479 342 539 342 l 347 342 q 313 333 325 342 q 294 312 300 325 q 286 282 288 299 q 285 249 285 265 l 771 249 l 771 0 l 35 0 l 35 281 q 59 401 35 344 q 126 501 83 458 q 226 567 169 543 q 347 592 282 592 l 479 592 q 506 599 497 592 q 519 619 515 607 q 524 644 524 631 q 524 669 524 657 q 511 702 524 689 q 479 715 499 715 l 43 715 l 43 967 l 479 967 q 605 940 550 967 q 698 869 660 914 q 756 765 736 824 q 775 639 775 706 z "},"3":{"ha":765,"x_min":44,"x_max":731,"o":"m 201 514 l 201 483 l 419 483 q 488 468 457 483 q 542 428 519 453 q 578 374 565 404 q 592 313 592 343 q 578 245 592 276 q 541 191 564 214 q 486 154 518 168 q 419 140 454 140 l 108 140 l 108 108 l 419 108 q 498 124 461 108 q 562 168 535 140 q 605 232 589 196 q 621 310 621 268 q 588 424 621 372 q 496 499 554 476 q 540 526 519 508 q 574 567 560 544 q 597 614 589 589 q 606 664 606 639 q 592 737 606 701 q 555 799 579 772 q 497 841 531 825 q 425 857 464 857 l 108 857 l 108 825 l 425 825 q 488 811 460 825 q 535 774 517 797 q 565 720 554 750 q 575 658 575 690 q 561 601 575 628 q 525 556 547 575 q 475 525 503 536 q 419 514 447 514 l 201 514 m 664 504 q 711 419 692 469 q 731 324 731 368 q 708 198 731 257 q 643 95 685 139 q 544 26 601 51 q 419 0 488 0 l 44 0 l 44 250 l 419 250 q 464 268 446 250 q 482 313 482 286 q 463 355 482 336 q 419 374 444 374 l 139 374 l 139 624 l 419 624 q 453 637 439 624 q 467 669 467 650 q 453 703 467 689 q 419 717 439 717 l 44 717 l 44 967 l 431 967 q 541 942 489 967 q 631 876 593 917 q 692 781 669 835 q 715 669 715 728 q 664 504 715 579 z "},"4":{"ha":836,"x_min":35,"x_max":786,"o":"m 176 861 l 144 861 l 144 672 q 158 599 144 633 q 194 540 171 565 q 253 499 218 514 q 332 485 288 485 l 536 485 l 646 485 l 646 110 l 676 110 l 676 861 l 646 861 l 646 517 l 332 517 q 253 534 283 517 q 206 579 224 551 q 182 643 189 607 q 174 717 175 679 q 174 793 172 756 q 176 861 176 831 m 786 969 l 786 0 l 536 0 l 536 375 l 332 375 q 217 399 271 375 q 122 463 163 422 q 58 557 82 503 q 35 672 35 611 l 35 969 l 285 969 l 285 672 q 299 640 285 653 q 332 626 313 626 l 536 626 l 536 969 l 786 969 z "},"5":{"ha":883,"x_min":53,"x_max":829,"o":"m 689 314 q 640 190 689 239 q 517 142 592 142 l 139 142 l 139 110 l 529 110 q 603 127 568 110 q 665 173 639 144 q 706 238 690 201 q 721 315 721 275 q 703 393 721 357 q 658 456 686 429 q 592 499 629 483 q 517 515 556 515 l 303 515 l 194 515 l 194 828 l 721 828 l 721 857 l 163 857 l 163 485 l 303 485 l 517 485 q 583 471 551 485 q 638 433 615 457 q 675 379 661 410 q 689 314 689 349 m 829 313 q 804 192 829 249 q 737 92 779 135 q 638 25 694 50 q 517 0 581 0 l 53 0 l 53 250 l 303 250 l 517 250 q 579 313 579 250 q 517 375 579 375 l 303 375 l 53 375 l 53 967 l 815 967 l 815 718 l 303 718 l 303 624 l 517 624 q 638 599 581 624 q 737 533 694 575 q 804 433 779 490 q 829 313 829 376 z "},"6":{"ha":818,"x_min":38,"x_max":779,"o":"m 638 301 q 622 239 638 268 q 583 188 607 210 q 527 153 558 165 q 465 140 496 140 l 351 140 q 284 154 315 140 q 230 191 253 168 q 193 245 207 214 q 179 313 179 276 l 179 483 l 465 483 q 538 469 506 483 q 592 430 569 454 q 626 372 614 406 q 638 301 638 339 m 528 313 q 510 357 528 339 q 465 375 492 375 l 351 375 q 307 357 325 375 q 289 313 289 339 q 307 268 289 286 q 351 250 325 250 l 465 250 q 510 268 492 250 q 528 313 528 286 m 761 718 l 351 718 q 312 711 325 718 q 294 692 299 704 q 289 662 289 679 q 289 624 289 644 l 465 624 q 588 599 531 624 q 688 533 644 575 q 755 433 731 490 q 779 313 779 376 q 755 190 779 247 q 688 91 731 133 q 588 24 644 49 q 465 0 531 0 l 351 0 q 229 24 286 0 q 129 91 172 49 q 62 190 86 133 q 38 313 38 247 l 38 671 q 61 785 38 732 q 125 879 85 839 q 219 943 165 919 q 335 967 274 967 l 758 967 l 761 718 m 179 671 q 193 738 179 708 q 231 787 207 767 q 285 817 254 807 q 351 828 317 828 l 675 828 l 675 858 l 335 858 q 262 844 296 858 q 202 803 228 829 q 162 744 176 778 q 147 671 147 710 l 147 307 q 164 229 147 265 q 209 166 181 193 q 274 124 238 139 q 351 108 311 108 l 465 108 q 546 125 508 108 q 611 170 583 142 q 654 237 639 199 q 669 318 669 275 q 668 338 669 326 q 664 362 667 350 q 658 384 661 374 q 650 399 654 394 q 593 472 625 447 q 524 505 561 496 q 442 514 486 514 q 351 514 399 514 l 179 514 l 179 671 z "},"7":{"ha":839,"x_min":35,"x_max":796,"o":"m 796 967 l 796 717 q 624 358 708 535 q 451 0 540 181 l 174 0 l 519 717 l 35 717 l 35 967 l 796 967 m 686 742 l 686 858 l 113 858 l 113 826 l 654 826 l 654 749 l 349 108 l 383 108 q 535 425 460 268 q 686 742 611 582 z "},"8":{"ha":825,"x_min":25,"x_max":804,"o":"m 694 317 q 695 325 694 318 q 693 335 696 332 q 682 385 693 360 q 653 434 671 411 q 613 474 635 457 q 569 500 592 492 q 611 526 592 508 q 646 565 631 543 q 670 613 661 588 q 679 663 679 639 q 665 735 679 700 q 628 797 651 769 q 572 842 604 825 q 500 858 539 858 q 374 858 436 858 q 261 841 311 858 q 181 781 211 824 q 150 653 150 738 q 160 607 150 631 q 185 563 169 583 q 221 525 201 542 q 261 500 240 508 q 168 426 203 478 q 133 311 133 374 q 149 236 133 272 q 192 172 165 200 q 255 126 219 143 q 329 110 290 110 q 453 111 389 110 q 572 131 518 113 q 660 191 625 149 q 694 317 694 233 m 738 506 q 763 467 751 489 q 784 422 775 446 q 799 372 793 397 q 804 326 804 347 q 781 201 804 260 q 717 97 758 142 q 619 26 676 51 q 493 0 561 0 l 321 0 q 205 26 258 0 q 111 97 151 53 q 48 197 71 140 q 25 313 25 253 q 92 506 25 419 q 56 576 71 533 q 40 656 40 619 q 62 776 40 719 q 122 874 83 832 q 216 942 161 917 q 336 967 271 967 l 508 967 q 617 941 567 967 q 706 874 668 915 q 767 778 744 832 q 789 669 789 725 q 738 506 789 579 m 663 311 q 628 202 663 238 q 543 153 594 167 q 433 140 492 139 q 324 142 374 142 q 257 158 286 142 q 207 200 228 174 q 176 259 186 226 q 165 325 165 292 q 181 387 165 358 q 220 437 196 415 q 275 471 244 458 q 336 483 306 483 l 493 483 q 560 470 529 483 q 613 433 590 457 q 649 378 636 410 q 663 311 663 347 m 556 311 q 538 356 556 338 q 493 375 519 375 l 336 375 q 292 356 310 375 q 275 311 275 338 q 292 267 275 285 q 336 250 310 250 l 493 250 q 538 267 519 250 q 556 311 556 285 m 647 671 q 635 610 647 639 q 603 561 624 582 q 555 528 583 540 q 493 515 526 515 l 336 515 q 276 528 304 515 q 227 561 249 540 q 193 610 206 582 q 181 671 181 639 q 193 731 181 703 q 227 781 206 760 q 277 814 249 801 q 336 826 306 826 l 500 826 q 558 813 531 826 q 604 778 585 800 q 635 729 624 757 q 647 671 647 701 m 539 671 q 526 703 539 690 q 493 717 513 717 l 336 717 q 303 703 317 717 q 289 671 289 690 q 303 638 289 651 q 336 624 317 624 l 493 624 q 526 638 513 624 q 539 671 539 651 z "},"9":{"ha":806,"x_min":26,"x_max":767,"o":"m 167 667 q 182 729 167 700 q 222 781 197 758 q 276 815 246 803 q 339 828 307 828 l 454 828 q 520 814 489 828 q 575 777 551 800 q 612 722 599 754 q 625 656 625 690 l 625 483 l 339 483 q 267 498 299 483 q 213 538 235 513 q 178 596 190 563 q 167 667 167 629 m 276 656 q 294 611 276 629 q 339 593 313 593 l 454 593 q 499 611 481 593 q 517 656 517 629 q 499 700 517 682 q 454 718 481 718 l 339 718 q 294 700 313 718 q 276 656 276 682 m 44 250 l 454 250 q 494 257 481 250 q 512 276 507 264 q 517 306 517 289 q 517 344 517 324 l 339 344 q 217 369 274 344 q 117 435 160 393 q 51 534 75 478 q 26 656 26 590 q 51 778 26 721 q 117 876 75 835 q 217 942 160 918 q 339 967 274 967 l 454 967 q 575 942 518 967 q 675 876 632 918 q 742 778 718 835 q 767 656 767 721 l 767 297 q 743 182 767 236 q 679 88 719 128 q 585 24 639 47 q 471 0 531 0 l 47 0 l 44 250 m 625 297 q 611 231 625 260 q 574 181 597 201 q 520 151 551 161 q 454 140 489 140 l 131 140 l 131 110 l 471 110 q 544 124 510 110 q 603 165 578 139 q 642 224 628 190 q 657 297 657 258 l 657 661 q 640 739 657 703 q 596 802 624 775 q 531 844 568 829 q 454 860 494 860 l 339 860 q 257 843 294 860 q 192 798 219 826 q 150 731 165 769 q 135 650 135 693 q 171 540 135 590 q 261 467 207 490 q 335 452 285 456 q 441 449 385 449 q 549 451 497 449 q 625 453 600 453 l 625 297 z "},"\u0000":{"ha":0,"x_min":0,"x_max":0,"o":""},"\r":{"ha":371,"x_min":0,"x_max":0,"o":""}," ":{"ha":371,"x_min":0,"x_max":0,"o":""},"e":{"ha":813,"x_min":46,"x_max":767,"o":"m 156 108 l 704 108 l 704 140 l 188 140 l 188 483 l 610 483 l 610 514 l 188 514 l 188 825 l 704 825 l 704 857 l 156 857 l 156 108 m 767 250 l 767 0 l 46 0 l 46 967 l 767 967 l 767 717 l 297 717 l 297 624 l 672 624 l 672 374 l 297 374 l 297 250 l 767 250 z "},"f":{"ha":761,"x_min":43,"x_max":742,"o":"m 742 967 l 742 717 l 293 717 l 293 624 l 669 624 l 669 375 l 293 375 l 293 0 l 43 0 l 43 967 l 742 967 m 679 826 l 679 858 l 153 858 l 153 110 l 183 110 l 183 483 l 607 483 l 607 515 l 183 515 l 183 826 l 679 826 z "},"g":{"ha":826,"x_min":33,"x_max":785,"o":"m 785 0 l 346 0 q 224 24 281 0 q 125 92 168 49 q 58 191 82 135 q 33 313 33 247 l 33 656 q 58 776 33 719 q 126 874 83 832 q 225 942 168 917 q 346 967 282 967 l 785 967 l 785 717 l 346 717 q 302 698 321 717 q 283 656 283 679 l 283 313 q 301 268 283 286 q 346 250 319 250 l 533 250 l 533 374 l 408 374 l 408 624 l 785 624 l 785 0 m 721 825 l 721 857 l 346 857 q 143 656 143 857 l 143 313 q 346 108 143 108 l 675 108 l 675 514 l 471 514 l 471 483 l 643 483 l 643 140 l 346 140 q 174 313 174 140 l 174 656 q 346 825 174 825 l 721 825 z "},"h":{"ha":869,"x_min":43,"x_max":826,"o":"m 826 0 l 575 0 l 575 375 l 294 375 l 294 0 l 43 0 l 43 967 l 294 967 l 294 624 l 575 624 l 575 967 l 826 967 l 826 0 m 717 108 l 717 858 l 685 858 l 685 514 l 185 514 l 185 858 l 153 858 l 153 108 l 185 108 l 185 483 l 685 483 l 685 108 l 717 108 z "},"i":{"ha":361,"x_min":56,"x_max":307,"o":"m 307 0 l 56 0 l 56 967 l 307 967 l 307 0 m 197 110 l 197 858 l 165 858 l 165 110 l 197 110 z "},"j":{"ha":471,"x_min":31,"x_max":438,"o":"m 438 313 q 413 191 438 247 q 345 92 388 135 q 245 24 303 49 q 124 0 188 0 l 31 0 l 31 250 l 124 250 q 168 268 150 250 q 186 313 186 286 l 186 967 l 438 967 l 438 313 m 328 313 l 328 860 l 296 860 l 296 313 q 282 226 296 260 q 242 173 268 192 q 178 147 215 154 q 93 140 140 140 l 93 110 l 124 110 q 328 313 328 110 z "},"k":{"ha":876,"x_min":42,"x_max":838,"o":"m 696 125 l 728 125 l 728 332 q 717 383 728 357 q 688 433 706 410 q 647 474 669 456 q 601 500 624 492 q 682 569 651 519 q 713 671 713 618 l 713 857 l 681 857 q 683 751 681 811 q 675 640 686 692 q 630 551 664 588 q 524 515 596 515 l 182 515 l 182 857 l 151 857 l 151 110 l 182 110 l 182 483 l 524 483 q 592 470 560 483 q 647 433 624 457 q 683 378 669 410 q 696 311 696 347 l 696 125 m 771 504 q 819 417 800 468 q 838 319 838 365 l 838 0 l 588 0 l 588 311 q 569 356 588 338 q 524 374 550 374 l 292 374 l 292 0 l 42 0 l 42 967 l 292 967 l 292 624 l 524 624 q 557 638 543 624 q 571 671 571 651 l 571 967 l 822 967 l 822 656 q 818 617 822 638 q 806 576 814 597 q 790 537 799 556 q 771 504 781 518 z "},"l":{"ha":703,"x_min":44,"x_max":671,"o":"m 578 108 l 578 140 l 186 140 l 186 857 l 154 857 l 154 108 l 578 108 m 671 250 l 671 0 l 44 0 l 44 967 l 296 967 l 296 250 l 671 250 z "},"m":{"ha":1142,"x_min":51,"x_max":1092,"o":"m 842 967 l 1092 967 l 1092 0 l 842 0 l 842 381 l 661 0 l 482 0 l 301 381 l 301 0 l 51 0 l 51 967 l 301 967 l 572 396 l 842 967 m 982 108 l 982 857 l 951 857 l 911 857 l 572 139 l 232 857 l 192 857 l 161 857 l 161 108 l 192 108 l 192 826 l 213 826 l 572 67 l 931 826 l 951 826 l 951 108 l 982 108 z "},"n":{"ha":850,"x_min":36,"x_max":818,"o":"m 676 140 l 649 140 l 224 857 l 144 857 l 144 110 l 176 110 l 176 826 l 206 826 l 631 110 l 708 110 l 708 857 l 676 857 l 676 140 m 818 0 l 568 0 l 286 475 l 286 0 l 36 0 l 36 967 l 286 967 l 568 492 l 568 967 l 818 967 l 818 0 z "},"o":{"ha":847,"x_min":32,"x_max":818,"o":"m 818 656 l 818 313 q 793 192 818 249 q 726 92 768 135 q 626 25 683 50 q 506 0 569 0 l 344 0 q 224 25 281 0 q 124 92 167 50 q 57 192 82 135 q 32 313 32 249 l 32 656 q 57 776 32 719 q 124 876 82 833 q 224 942 167 918 q 344 967 281 967 l 506 967 q 626 942 569 967 q 726 876 683 918 q 793 776 768 833 q 818 656 818 719 m 708 313 l 708 656 q 506 860 708 860 l 344 860 q 142 656 142 860 l 142 313 q 344 110 142 110 l 506 110 q 708 313 708 110 m 676 656 l 676 313 q 506 140 676 140 l 344 140 q 172 313 172 140 l 172 656 q 344 828 172 828 l 506 828 q 676 656 676 828 m 568 313 l 568 656 q 550 700 568 682 q 506 718 532 718 l 344 718 q 300 700 318 718 q 282 656 282 682 l 282 313 q 300 268 282 286 q 344 250 318 250 l 506 250 q 550 268 532 250 q 568 313 568 286 z "},"p":{"ha":808,"x_min":43,"x_max":785,"o":"m 643 656 q 629 588 643 619 q 592 533 615 556 q 537 497 568 510 q 471 483 506 483 l 183 483 l 183 826 l 478 826 q 542 813 513 826 q 594 774 572 799 q 630 719 617 750 q 643 656 643 689 m 533 656 q 515 699 533 681 q 471 718 496 718 l 293 718 l 293 593 l 471 593 q 515 611 497 593 q 533 656 533 629 m 471 967 q 595 938 538 964 q 694 871 653 913 q 760 773 736 829 q 785 654 785 717 q 760 533 785 590 q 692 434 735 476 q 592 367 650 392 q 471 343 535 343 l 293 343 l 293 0 l 43 0 l 43 967 l 471 967 m 675 656 q 659 731 675 694 q 616 796 643 768 q 554 840 589 824 q 481 857 519 857 l 153 857 l 153 110 l 183 110 l 183 451 l 471 451 q 551 469 514 451 q 615 514 588 486 q 659 578 643 542 q 675 656 675 615 z "},"q":{"ha":874,"x_min":15,"x_max":863,"o":"m 722 658 l 722 314 q 550 142 722 142 l 329 142 q 157 314 157 142 l 157 658 q 329 831 157 831 l 550 831 q 722 658 722 831 m 613 314 l 613 658 q 594 703 613 685 q 550 721 576 721 l 329 721 q 285 703 303 721 q 267 658 267 685 l 267 314 q 285 269 267 288 q 329 251 303 251 l 550 251 q 594 269 576 251 q 613 314 613 288 m 454 -43 l 454 111 q 569 114 514 111 q 664 135 624 117 q 728 195 704 154 q 753 314 753 236 l 753 658 q 550 861 753 861 l 329 861 q 125 658 125 861 l 125 314 q 149 195 125 236 q 214 135 174 154 q 308 114 254 117 q 424 111 363 111 l 424 -43 l 439 -43 l 454 -43 m 863 314 q 840 196 863 251 q 776 98 817 140 q 681 30 735 56 q 564 1 626 4 l 564 -115 l 314 -115 l 314 1 q 197 30 251 4 q 102 98 143 56 q 38 196 61 140 q 15 314 15 251 l 15 658 q 40 779 15 722 q 108 879 65 836 q 207 944 150 922 q 329 967 264 967 l 550 967 q 671 944 614 967 q 770 878 728 921 q 838 779 813 836 q 863 658 863 722 l 863 314 z "},"r":{"ha":851,"x_min":50,"x_max":821,"o":"m 679 642 q 669 594 676 621 q 644 542 663 567 q 594 501 626 518 q 507 483 561 483 l 190 483 l 190 826 l 514 826 q 585 809 553 826 q 641 765 618 792 q 674 705 664 738 q 679 642 685 672 m 569 656 q 551 699 569 681 q 507 717 533 717 l 300 717 l 300 593 l 507 593 q 551 611 533 593 q 569 656 569 629 m 508 858 l 160 858 l 160 110 l 190 110 l 190 453 l 404 453 l 575 110 l 610 110 l 439 453 q 532 456 494 453 q 597 469 569 458 q 645 502 624 481 q 690 561 667 524 q 709 669 714 622 q 676 768 704 715 q 646 806 665 789 q 603 834 626 822 q 556 852 581 846 q 508 858 531 858 m 522 967 q 640 940 585 967 q 735 869 694 913 q 798 768 775 825 q 821 651 821 711 q 805 556 821 601 q 760 471 789 510 q 693 403 732 432 q 607 360 654 375 l 786 0 l 507 0 l 338 343 l 300 343 l 300 0 l 50 0 l 50 967 l 522 967 z "},"s":{"ha":838,"x_min":22,"x_max":811,"o":"m 810 311 q 786 190 811 246 q 719 91 761 133 q 619 24 676 49 q 496 0 561 0 l 38 0 l 36 249 l 497 249 q 542 267 524 249 q 560 311 560 285 q 542 356 560 338 q 497 374 524 374 l 319 374 q 204 397 258 374 q 110 461 150 421 q 46 555 69 501 q 22 669 22 608 q 46 785 22 731 q 110 879 69 839 q 204 943 150 919 q 319 967 258 967 l 782 967 l 785 717 l 319 717 q 286 703 300 717 q 272 669 272 689 q 286 636 272 650 q 319 622 300 622 l 497 622 q 627 600 569 622 q 725 538 685 578 q 787 440 765 497 q 810 311 808 382 m 701 318 q 688 383 701 350 q 654 440 674 417 q 577 497 618 481 q 493 516 536 513 q 407 516 450 519 q 324 515 364 513 q 250 531 285 517 q 189 583 215 544 q 169 624 176 604 q 163 669 163 644 q 175 731 163 703 q 208 781 188 760 q 258 814 229 801 q 319 826 286 826 l 710 826 l 710 857 l 319 857 q 245 842 279 857 q 185 802 211 828 q 145 742 160 776 q 131 669 131 708 q 139 616 131 646 q 163 567 147 586 q 235 501 193 518 q 324 483 276 485 q 422 485 371 481 q 519 482 472 489 q 631 421 592 471 q 669 300 669 371 q 654 238 669 267 q 615 186 639 208 q 559 151 590 164 q 497 139 528 139 l 108 139 l 108 108 l 497 108 q 579 125 542 108 q 644 169 617 142 q 686 235 671 197 q 701 318 701 274 z "},"t":{"ha":736,"x_min":21,"x_max":710,"o":"m 710 957 l 710 708 l 485 708 l 485 -10 l 236 -10 l 236 708 l 21 708 l 21 957 l 710 957 m 646 817 l 646 849 l 83 849 l 83 817 l 344 817 l 344 100 l 375 100 l 375 817 l 646 817 z "},"u":{"ha":836,"x_min":28,"x_max":803,"o":"m 803 311 q 778 190 803 247 q 710 91 753 133 q 612 24 668 49 q 492 0 556 0 l 339 0 q 219 24 275 0 q 120 91 163 49 q 53 190 78 133 q 28 311 28 247 l 28 967 l 276 967 l 276 311 q 295 267 276 286 q 339 249 314 249 l 492 249 q 536 267 518 249 q 554 311 554 285 l 554 967 l 803 967 l 803 311 m 693 311 l 693 847 l 663 847 l 663 572 l 663 311 q 492 139 663 139 l 339 139 q 168 311 168 139 l 168 586 l 168 847 l 138 847 l 138 311 q 339 107 138 107 l 492 107 q 693 311 693 107 z "},"v":{"ha":850,"x_min":6,"x_max":840,"o":"m 403 94 l 453 94 l 686 874 l 653 874 l 431 126 l 424 126 l 193 874 l 160 874 l 403 94 m 840 967 l 529 0 l 315 0 l 6 967 l 272 967 l 426 467 l 572 967 l 840 967 z "},"w":{"ha":1103,"x_min":14,"x_max":1090,"o":"m 542 846 l 560 846 l 718 97 l 792 97 l 957 876 l 925 876 l 767 128 l 744 128 l 585 876 l 518 876 l 357 126 l 335 126 l 175 878 l 144 878 l 311 97 l 382 97 l 542 846 m 883 0 l 629 0 l 550 365 l 474 0 l 219 0 l 14 964 l 269 964 l 346 599 l 424 964 l 679 964 l 756 599 l 833 964 l 1090 967 l 883 0 z "},"x":{"ha":861,"x_min":13,"x_max":846,"o":"m 846 967 l 571 478 l 839 0 l 553 0 l 429 224 l 304 0 l 19 0 l 286 478 l 13 967 l 297 967 l 429 733 l 560 967 l 846 967 m 447 478 l 668 874 l 632 874 l 429 510 l 225 874 l 190 874 l 411 478 l 197 94 l 232 94 l 429 446 l 625 94 l 661 94 l 447 478 z "},"y":{"ha":919,"x_min":7,"x_max":917,"o":"m 586 0 l 336 0 l 336 393 l 7 967 l 294 967 l 461 678 l 628 967 l 917 967 l 586 393 l 586 0 m 478 422 l 736 874 l 700 874 q 585 663 642 771 q 461 458 528 556 l 222 874 l 186 874 l 446 422 l 446 108 l 478 108 l 478 422 z "},"z":{"ha":832,"x_min":42,"x_max":801,"o":"m 151 108 l 724 108 l 724 139 l 182 139 l 182 194 l 692 758 l 692 857 l 131 857 l 131 826 l 660 826 l 660 771 l 151 207 l 151 108 m 801 249 l 801 0 l 42 0 l 42 249 l 464 717 l 42 717 l 42 967 l 801 967 l 801 717 l 378 249 l 801 249 z "},"A":{"ha":856,"x_min":35,"x_max":817,"o":"m 504 967 q 625 942 568 967 q 724 874 682 917 q 792 775 767 832 q 817 654 817 718 l 817 0 l 707 0 l 707 654 q 691 733 707 696 q 647 797 675 769 q 583 841 619 825 q 504 857 546 857 l 347 857 q 268 841 306 857 q 203 798 231 825 q 159 733 175 771 q 143 654 143 696 l 143 0 l 35 0 l 35 654 q 59 775 35 718 q 126 875 83 832 q 226 942 169 918 q 347 967 282 967 l 504 967 m 675 394 l 675 0 l 567 0 l 567 283 l 285 283 l 285 0 l 175 0 l 175 394 l 675 394 m 675 426 l 175 426 l 175 654 q 189 720 175 689 q 226 775 203 751 q 280 812 249 799 q 347 825 311 825 l 504 825 q 567 813 536 825 q 622 778 597 800 q 660 728 646 757 q 675 665 675 699 l 675 426 m 567 654 q 548 698 567 679 q 504 717 529 717 l 347 717 q 303 699 321 717 q 285 654 285 681 l 285 538 l 567 538 l 567 654 z "},"B":{"ha":861,"x_min":44,"x_max":831,"o":"m 154 108 l 518 108 q 595 124 558 108 q 660 167 632 140 q 706 231 689 194 q 722 308 722 267 q 688 424 722 371 q 594 499 653 476 q 674 565 642 518 q 706 663 706 613 q 692 735 706 700 q 655 798 679 771 q 597 841 631 825 q 524 857 564 857 l 154 857 l 154 108 m 764 504 q 790 467 778 489 q 812 421 803 444 q 826 373 821 397 q 831 328 831 349 q 808 200 831 260 q 744 96 785 140 q 645 26 703 51 q 518 0 588 0 l 44 0 l 44 967 l 518 967 q 635 944 581 967 q 731 880 690 921 q 794 784 771 839 q 818 667 818 729 q 803 581 818 622 q 764 504 789 540 m 690 313 q 676 245 690 276 q 640 191 663 214 q 585 154 617 168 q 518 140 553 140 l 185 140 l 185 483 l 518 483 q 584 469 553 483 q 639 432 615 456 q 676 378 663 408 q 690 313 690 347 m 581 313 q 563 356 581 338 q 518 374 544 374 l 294 374 l 294 250 l 518 250 q 563 268 544 250 q 581 313 581 286 m 518 514 l 185 514 l 185 825 l 531 826 q 586 813 560 826 q 632 776 613 799 q 663 725 651 753 q 675 669 675 697 q 663 610 675 638 q 628 560 650 582 q 577 526 606 539 q 518 514 549 514 m 565 669 q 551 703 565 689 q 518 717 538 717 l 294 717 l 294 624 l 518 624 q 551 637 538 624 q 565 669 565 650 z "},"C":{"ha":817,"x_min":36,"x_max":788,"o":"m 788 251 l 788 0 l 349 0 q 227 25 283 0 q 128 92 171 50 q 60 192 85 135 q 36 313 36 249 l 36 656 q 61 776 36 719 q 128 876 86 833 q 228 942 171 918 q 349 967 285 967 l 788 967 l 788 718 l 349 718 q 305 699 324 718 q 286 656 286 681 l 286 313 q 305 269 286 288 q 349 251 324 251 l 788 251 m 725 110 l 725 142 l 349 142 q 176 313 176 142 l 176 656 q 349 828 176 828 l 725 828 l 725 858 l 349 858 q 146 656 146 858 l 146 313 q 349 110 146 110 l 725 110 z "},"D":{"ha":842,"x_min":49,"x_max":800,"o":"m 800 656 l 800 313 q 775 192 800 249 q 708 92 750 135 q 608 25 665 50 q 486 0 550 0 l 49 0 l 49 967 l 486 967 q 608 942 550 967 q 708 876 665 918 q 775 776 750 833 q 800 656 800 719 m 690 313 l 690 656 q 486 858 690 858 l 158 858 l 158 110 l 486 110 q 690 313 690 110 m 658 656 l 658 313 q 486 142 658 142 l 189 142 l 189 826 l 486 826 q 658 656 658 826 m 550 313 l 550 656 q 531 699 550 681 q 486 718 511 718 l 299 718 l 299 251 l 486 251 q 531 269 513 251 q 550 313 550 288 z "},"E":{"ha":813,"x_min":46,"x_max":767,"o":"m 156 108 l 704 108 l 704 140 l 188 140 l 188 483 l 610 483 l 610 514 l 188 514 l 188 825 l 704 825 l 704 857 l 156 857 l 156 108 m 767 250 l 767 0 l 46 0 l 46 967 l 767 967 l 767 717 l 297 717 l 297 624 l 672 624 l 672 374 l 297 374 l 297 250 l 767 250 z "},"F":{"ha":761,"x_min":43,"x_max":742,"o":"m 742 967 l 742 717 l 293 717 l 293 624 l 669 624 l 669 375 l 293 375 l 293 0 l 43 0 l 43 967 l 742 967 m 679 826 l 679 858 l 153 858 l 153 110 l 183 110 l 183 483 l 607 483 l 607 515 l 183 515 l 183 826 l 679 826 z "},"G":{"ha":826,"x_min":33,"x_max":785,"o":"m 785 0 l 346 0 q 224 24 281 0 q 125 92 168 49 q 58 191 82 135 q 33 313 33 247 l 33 656 q 58 776 33 719 q 126 874 83 832 q 225 942 168 917 q 346 967 282 967 l 785 967 l 785 717 l 346 717 q 302 698 321 717 q 283 656 283 679 l 283 313 q 301 268 283 286 q 346 250 319 250 l 533 250 l 533 374 l 408 374 l 408 624 l 785 624 l 785 0 m 721 825 l 721 857 l 346 857 q 143 656 143 857 l 143 313 q 346 108 143 108 l 675 108 l 675 514 l 471 514 l 471 483 l 643 483 l 643 140 l 346 140 q 174 313 174 140 l 174 656 q 346 825 174 825 l 721 825 z "},"H":{"ha":869,"x_min":43,"x_max":826,"o":"m 826 0 l 575 0 l 575 375 l 294 375 l 294 0 l 43 0 l 43 967 l 294 967 l 294 624 l 575 624 l 575 967 l 826 967 l 826 0 m 717 108 l 717 858 l 685 858 l 685 514 l 185 514 l 185 858 l 153 858 l 153 108 l 185 108 l 185 483 l 685 483 l 685 108 l 717 108 z "},"I":{"ha":361,"x_min":56,"x_max":307,"o":"m 307 0 l 56 0 l 56 967 l 307 967 l 307 0 m 197 110 l 197 858 l 165 858 l 165 110 l 197 110 z "},"J":{"ha":471,"x_min":31,"x_max":438,"o":"m 438 313 q 413 191 438 247 q 345 92 388 135 q 245 24 303 49 q 124 0 188 0 l 31 0 l 31 250 l 124 250 q 168 268 150 250 q 186 313 186 286 l 186 967 l 438 967 l 438 313 m 328 313 l 328 860 l 296 860 l 296 313 q 282 226 296 260 q 242 173 268 192 q 178 147 215 154 q 93 140 140 140 l 93 110 l 124 110 q 328 313 328 110 z "},"K":{"ha":876,"x_min":42,"x_max":838,"o":"m 696 125 l 728 125 l 728 332 q 717 383 728 357 q 688 433 706 410 q 647 474 669 456 q 601 500 624 492 q 682 569 651 519 q 713 671 713 618 l 713 857 l 681 857 q 683 751 681 811 q 675 640 686 692 q 630 551 664 588 q 524 515 596 515 l 182 515 l 182 857 l 151 857 l 151 110 l 182 110 l 182 483 l 524 483 q 592 470 560 483 q 647 433 624 457 q 683 378 669 410 q 696 311 696 347 l 696 125 m 771 504 q 819 417 800 468 q 838 319 838 365 l 838 0 l 588 0 l 588 311 q 569 356 588 338 q 524 374 550 374 l 292 374 l 292 0 l 42 0 l 42 967 l 292 967 l 292 624 l 524 624 q 557 638 543 624 q 571 671 571 651 l 571 967 l 822 967 l 822 656 q 818 617 822 638 q 806 576 814 597 q 790 537 799 556 q 771 504 781 518 z "},"L":{"ha":703,"x_min":44,"x_max":671,"o":"m 578 108 l 578 140 l 186 140 l 186 857 l 154 857 l 154 108 l 578 108 m 671 250 l 671 0 l 44 0 l 44 967 l 296 967 l 296 250 l 671 250 z "},"M":{"ha":1142,"x_min":51,"x_max":1092,"o":"m 842 967 l 1092 967 l 1092 0 l 842 0 l 842 381 l 661 0 l 482 0 l 301 381 l 301 0 l 51 0 l 51 967 l 301 967 l 572 396 l 842 967 m 982 108 l 982 857 l 951 857 l 911 857 l 572 139 l 232 857 l 192 857 l 161 857 l 161 108 l 192 108 l 192 826 l 213 826 l 572 67 l 931 826 l 951 826 l 951 108 l 982 108 z "},"N":{"ha":850,"x_min":36,"x_max":818,"o":"m 676 140 l 649 140 l 224 857 l 144 857 l 144 110 l 176 110 l 176 826 l 206 826 l 631 110 l 708 110 l 708 857 l 676 857 l 676 140 m 818 0 l 568 0 l 286 475 l 286 0 l 36 0 l 36 967 l 286 967 l 568 492 l 568 967 l 818 967 l 818 0 z "},"O":{"ha":847,"x_min":32,"x_max":818,"o":"m 818 656 l 818 313 q 793 192 818 249 q 726 92 768 135 q 626 25 683 50 q 506 0 569 0 l 344 0 q 224 25 281 0 q 124 92 167 50 q 57 192 82 135 q 32 313 32 249 l 32 656 q 57 776 32 719 q 124 876 82 833 q 224 942 167 918 q 344 967 281 967 l 506 967 q 626 942 569 967 q 726 876 683 918 q 793 776 768 833 q 818 656 818 719 m 708 313 l 708 656 q 506 860 708 860 l 344 860 q 142 656 142 860 l 142 313 q 344 110 142 110 l 506 110 q 708 313 708 110 m 676 656 l 676 313 q 506 140 676 140 l 344 140 q 172 313 172 140 l 172 656 q 344 828 172 828 l 506 828 q 676 656 676 828 m 568 313 l 568 656 q 550 700 568 682 q 506 718 532 718 l 344 718 q 300 700 318 718 q 282 656 282 682 l 282 313 q 300 268 282 286 q 344 250 318 250 l 506 250 q 550 268 532 250 q 568 313 568 286 z "},"P":{"ha":808,"x_min":43,"x_max":785,"o":"m 643 656 q 629 588 643 619 q 592 533 615 556 q 537 497 568 510 q 471 483 506 483 l 183 483 l 183 826 l 478 826 q 542 813 513 826 q 594 774 572 799 q 630 719 617 750 q 643 656 643 689 m 533 656 q 515 699 533 681 q 471 718 496 718 l 293 718 l 293 593 l 471 593 q 515 611 497 593 q 533 656 533 629 m 471 967 q 595 938 538 964 q 694 871 653 913 q 760 773 736 829 q 785 654 785 717 q 760 533 785 590 q 692 434 735 476 q 592 367 650 392 q 471 343 535 343 l 293 343 l 293 0 l 43 0 l 43 967 l 471 967 m 675 656 q 659 731 675 694 q 616 796 643 768 q 554 840 589 824 q 481 857 519 857 l 153 857 l 153 110 l 183 110 l 183 451 l 471 451 q 551 469 514 451 q 615 514 588 486 q 659 578 643 542 q 675 656 675 615 z "},"Q":{"ha":874,"x_min":15,"x_max":863,"o":"m 722 658 l 722 314 q 550 142 722 142 l 329 142 q 157 314 157 142 l 157 658 q 329 831 157 831 l 550 831 q 722 658 722 831 m 613 314 l 613 658 q 594 703 613 685 q 550 721 576 721 l 329 721 q 285 703 303 721 q 267 658 267 685 l 267 314 q 285 269 267 288 q 329 251 303 251 l 550 251 q 594 269 576 251 q 613 314 613 288 m 454 -43 l 454 111 q 569 114 514 111 q 664 135 624 117 q 728 195 704 154 q 753 314 753 236 l 753 658 q 550 861 753 861 l 329 861 q 125 658 125 861 l 125 314 q 149 195 125 236 q 214 135 174 154 q 308 114 254 117 q 424 111 363 111 l 424 -43 l 439 -43 l 454 -43 m 863 314 q 840 196 863 251 q 776 98 817 140 q 681 30 735 56 q 564 1 626 4 l 564 -115 l 314 -115 l 314 1 q 197 30 251 4 q 102 98 143 56 q 38 196 61 140 q 15 314 15 251 l 15 658 q 40 779 15 722 q 108 879 65 836 q 207 944 150 922 q 329 967 264 967 l 550 967 q 671 944 614 967 q 770 878 728 921 q 838 779 813 836 q 863 658 863 722 l 863 314 z "},"R":{"ha":851,"x_min":50,"x_max":821,"o":"m 679 642 q 669 594 676 621 q 644 542 663 567 q 594 501 626 518 q 507 483 561 483 l 190 483 l 190 826 l 514 826 q 585 809 553 826 q 641 765 618 792 q 674 705 664 738 q 679 642 685 672 m 569 656 q 551 699 569 681 q 507 717 533 717 l 300 717 l 300 593 l 507 593 q 551 611 533 593 q 569 656 569 629 m 508 858 l 160 858 l 160 110 l 190 110 l 190 453 l 404 453 l 575 110 l 610 110 l 439 453 q 532 456 494 453 q 597 469 569 458 q 645 502 624 481 q 690 561 667 524 q 709 669 714 622 q 676 768 704 715 q 646 806 665 789 q 603 834 626 822 q 556 852 581 846 q 508 858 531 858 m 522 967 q 640 940 585 967 q 735 869 694 913 q 798 768 775 825 q 821 651 821 711 q 805 556 821 601 q 760 471 789 510 q 693 403 732 432 q 607 360 654 375 l 786 0 l 507 0 l 338 343 l 300 343 l 300 0 l 50 0 l 50 967 l 522 967 z "},"S":{"ha":838,"x_min":22,"x_max":811,"o":"m 810 311 q 786 190 811 246 q 719 91 761 133 q 619 24 676 49 q 496 0 561 0 l 38 0 l 36 249 l 497 249 q 542 267 524 249 q 560 311 560 285 q 542 356 560 338 q 497 374 524 374 l 319 374 q 204 397 258 374 q 110 461 150 421 q 46 555 69 501 q 22 669 22 608 q 46 785 22 731 q 110 879 69 839 q 204 943 150 919 q 319 967 258 967 l 782 967 l 785 717 l 319 717 q 286 703 300 717 q 272 669 272 689 q 286 636 272 650 q 319 622 300 622 l 497 622 q 627 600 569 622 q 725 538 685 578 q 787 440 765 497 q 810 311 808 382 m 701 318 q 688 383 701 350 q 654 440 674 417 q 577 497 618 481 q 493 516 536 513 q 407 516 450 519 q 324 515 364 513 q 250 531 285 517 q 189 583 215 544 q 169 624 176 604 q 163 669 163 644 q 175 731 163 703 q 208 781 188 760 q 258 814 229 801 q 319 826 286 826 l 710 826 l 710 857 l 319 857 q 245 842 279 857 q 185 802 211 828 q 145 742 160 776 q 131 669 131 708 q 139 616 131 646 q 163 567 147 586 q 235 501 193 518 q 324 483 276 485 q 422 485 371 481 q 519 482 472 489 q 631 421 592 471 q 669 300 669 371 q 654 238 669 267 q 615 186 639 208 q 559 151 590 164 q 497 139 528 139 l 108 139 l 108 108 l 497 108 q 579 125 542 108 q 644 169 617 142 q 686 235 671 197 q 701 318 701 274 z "},"T":{"ha":736,"x_min":21,"x_max":710,"o":"m 710 957 l 710 708 l 485 708 l 485 -10 l 236 -10 l 236 708 l 21 708 l 21 957 l 710 957 m 646 817 l 646 849 l 83 849 l 83 817 l 344 817 l 344 100 l 375 100 l 375 817 l 646 817 z "},"U":{"ha":836,"x_min":28,"x_max":803,"o":"m 803 311 q 778 190 803 247 q 710 91 753 133 q 612 24 668 49 q 492 0 556 0 l 339 0 q 219 24 275 0 q 120 91 163 49 q 53 190 78 133 q 28 311 28 247 l 28 967 l 276 967 l 276 311 q 295 267 276 286 q 339 249 314 249 l 492 249 q 536 267 518 249 q 554 311 554 285 l 554 967 l 803 967 l 803 311 m 693 311 l 693 847 l 663 847 l 663 572 l 663 311 q 492 139 663 139 l 339 139 q 168 311 168 139 l 168 586 l 168 847 l 138 847 l 138 311 q 339 107 138 107 l 492 107 q 693 311 693 107 z "},"V":{"ha":850,"x_min":6,"x_max":840,"o":"m 403 94 l 453 94 l 686 874 l 653 874 l 431 126 l 424 126 l 193 874 l 160 874 l 403 94 m 840 967 l 529 0 l 315 0 l 6 967 l 272 967 l 426 467 l 572 967 l 840 967 z "},"W":{"ha":1103,"x_min":14,"x_max":1090,"o":"m 542 846 l 560 846 l 718 97 l 792 97 l 957 876 l 925 876 l 767 128 l 744 128 l 585 876 l 518 876 l 357 126 l 335 126 l 175 878 l 144 878 l 311 97 l 382 97 l 542 846 m 883 0 l 629 0 l 550 365 l 474 0 l 219 0 l 14 964 l 269 964 l 346 599 l 424 964 l 679 964 l 756 599 l 833 964 l 1090 967 l 883 0 z "},"X":{"ha":861,"x_min":13,"x_max":846,"o":"m 846 967 l 571 478 l 839 0 l 553 0 l 429 224 l 304 0 l 19 0 l 286 478 l 13 967 l 297 967 l 429 733 l 560 967 l 846 967 m 447 478 l 668 874 l 632 874 l 429 510 l 225 874 l 190 874 l 411 478 l 197 94 l 232 94 l 429 446 l 625 94 l 661 94 l 447 478 z "},"Y":{"ha":919,"x_min":7,"x_max":917,"o":"m 586 0 l 336 0 l 336 393 l 7 967 l 294 967 l 461 678 l 628 967 l 917 967 l 586 393 l 586 0 m 478 422 l 736 874 l 700 874 q 585 663 642 771 q 461 458 528 556 l 222 874 l 186 874 l 446 422 l 446 108 l 478 108 l 478 422 z "},"Z":{"ha":832,"x_min":42,"x_max":801,"o":"m 151 108 l 724 108 l 724 139 l 182 139 l 182 194 l 692 758 l 692 857 l 131 857 l 131 826 l 660 826 l 660 771 l 151 207 l 151 108 m 801 249 l 801 0 l 42 0 l 42 249 l 464 717 l 42 717 l 42 967 l 801 967 l 801 717 l 378 249 l 801 249 z "},"+":{"ha":858,"x_min":50,"x_max":832,"o":"m 549 624 l 832 624 l 832 410 l 549 410 l 549 125 l 335 125 l 335 410 l 50 410 l 50 624 l 335 624 l 335 907 l 549 907 l 549 624 m 750 503 l 750 531 l 549 531 l 456 531 l 456 624 l 456 825 l 428 825 l 428 624 l 428 531 l 335 531 l 131 531 l 131 503 l 335 503 l 428 503 l 428 410 l 428 206 l 456 206 l 456 410 l 456 503 l 549 503 l 750 503 z "},",":{"ha":321,"x_min":33,"x_max":283,"o":"m 176 67 l 176 128 l 144 128 l 144 6 l 176 67 m 283 221 l 283 3 l 158 -186 l 33 -186 l 33 221 l 283 221 z "},"-":{"ha":565,"x_min":24,"x_max":542,"o":"m 24 382 l 24 633 l 542 633 l 542 382 l 24 382 m 133 492 l 433 492 l 433 524 l 133 524 l 133 492 z "},".":{"ha":333,"x_min":40,"x_max":292,"o":"m 153 96 l 185 96 l 185 126 l 153 126 l 153 96 m 292 221 l 292 1 l 40 1 l 40 221 l 292 221 z "},"/":{"ha":740,"x_min":19,"x_max":732,"o":"m 732 967 l 297 0 l 19 0 l 456 967 l 732 967 m 225 110 l 563 871 l 528 871 l 190 110 l 225 110 z "},":":{"ha":333,"x_min":39,"x_max":292,"o":"m 153 96 l 185 96 l 185 126 l 153 126 l 153 96 m 292 221 l 292 1 l 40 1 l 40 221 l 292 221 m 151 842 l 183 842 l 183 872 l 151 872 l 151 842 m 290 967 l 290 747 l 39 747 l 39 967 l 290 967 z "},";":{"ha":333,"x_min":33,"x_max":290,"o":"m 176 68 l 176 128 l 144 128 l 144 6 l 176 68 m 283 221 l 283 3 l 158 -186 l 33 -186 l 33 221 l 283 221 m 151 842 l 183 842 l 183 872 l 151 872 l 151 842 m 290 967 l 290 747 l 39 747 l 39 967 l 290 967 z "},"<":{"ha":367,"x_min":39,"x_max":329,"o":"m 328 731 q 328 715 328 732 q 329 668 329 697 q 329 601 329 639 q 329 524 329 563 q 328 313 329 431 l 39 519 q 182 622 118 576 q 235 660 208 642 q 281 694 261 679 q 314 719 301 710 q 328 731 326 729 z "},"=":{"ha":663,"x_min":38,"x_max":625,"o":"m 38 533 l 38 747 l 625 747 l 625 533 l 38 533 m 118 626 l 543 626 l 543 654 l 118 654 l 118 626 m 38 253 l 38 467 l 625 467 l 625 253 l 38 253 m 118 346 l 543 346 l 543 374 l 118 374 l 118 346 z "},">":{"ha":374,"x_min":32,"x_max":351,"o":"m 33 718 q 49 708 35 717 q 85 685 63 699 q 137 654 108 671 q 194 619 165 638 q 351 526 264 578 l 33 324 q 32 524 32 436 q 32 597 32 561 q 32 659 32 632 q 32 703 32 686 q 33 718 32 719 z "},"?":{"ha":821,"x_min":15,"x_max":788,"o":"m 490 967 q 618 940 563 967 q 711 869 674 914 q 768 765 749 824 q 788 639 788 706 q 764 524 788 578 q 700 431 740 471 q 606 367 660 390 q 490 343 551 343 q 441 319 454 343 q 428 265 428 296 l 322 265 l 179 265 l 179 281 q 203 401 179 344 q 270 501 228 458 q 369 568 313 543 q 490 593 426 593 q 518 600 508 593 q 532 619 528 607 q 537 644 536 631 q 538 671 538 658 q 508 713 538 701 q 441 725 479 724 q 364 722 403 726 q 307 718 325 718 l 186 718 l 15 718 q 46 813 21 768 q 109 892 71 857 q 195 947 147 926 q 293 967 243 967 l 490 967 m 646 535 q 648 534 647 533 q 647 536 649 535 q 674 601 669 568 q 679 671 679 633 q 665 744 679 710 q 624 803 650 778 q 564 842 599 828 q 490 857 529 857 l 296 857 q 210 832 253 857 q 149 769 168 807 l 186 769 q 240 811 207 796 q 306 826 272 826 l 490 826 q 562 810 532 826 q 610 769 592 794 q 638 709 629 743 q 647 639 647 675 q 640 594 647 615 q 621 553 632 574 l 621 551 q 569 503 594 515 q 517 487 543 490 q 464 481 492 483 q 407 465 436 479 q 356 433 379 451 q 318 386 333 414 l 303 356 l 301 354 q 296 333 297 343 q 292 313 294 324 l 322 313 q 331 342 322 324 q 343 367 339 360 q 390 418 364 401 q 443 443 415 435 q 500 455 471 451 q 556 465 529 458 q 606 488 583 472 q 646 535 629 503 m 179 218 l 428 218 l 428 0 l 179 0 l 179 218 m 292 93 l 322 93 l 322 124 l 292 124 l 292 93 z "},"d":{"ha":842,"x_min":49,"x_max":800,"o":"m 800 656 l 800 313 q 775 192 800 249 q 708 92 750 135 q 608 25 665 50 q 486 0 550 0 l 49 0 l 49 967 l 486 967 q 608 942 550 967 q 708 876 665 918 q 775 776 750 833 q 800 656 800 719 m 690 313 l 690 656 q 486 858 690 858 l 158 858 l 158 110 l 486 110 q 690 313 690 110 m 658 656 l 658 313 q 486 142 658 142 l 189 142 l 189 826 l 486 826 q 658 656 658 826 m 550 313 l 550 656 q 531 699 550 681 q 486 718 511 718 l 299 718 l 299 251 l 486 251 q 531 269 513 251 q 550 313 550 288 z "},"!":{"ha":333,"x_min":42,"x_max":293,"o":"m 151 306 l 183 306 l 183 851 l 151 851 l 151 306 m 293 258 l 42 258 l 42 961 l 293 961 l 293 258 m 154 119 l 154 88 l 186 88 l 186 119 l 154 119 m 293 213 l 293 -6 l 42 -6 l 42 213 l 293 213 z "},"\"":{"ha":611,"x_min":36,"x_max":571,"o":"m 179 778 l 179 839 l 147 839 l 147 717 l 179 778 m 286 932 l 286 714 l 161 525 l 36 525 l 36 932 l 286 932 m 464 775 l 464 836 l 432 836 l 432 714 l 464 775 m 571 929 l 571 711 l 446 522 l 321 522 l 321 929 l 571 929 z "},"#":{"ha":939,"x_min":32,"x_max":899,"o":"m 721 426 l 899 426 l 899 239 l 721 239 l 721 57 l 533 57 l 533 239 l 406 239 l 406 57 l 218 57 l 218 239 l 32 239 l 32 426 l 218 426 l 218 556 l 32 556 l 32 742 l 218 742 l 218 924 l 406 924 l 406 742 l 533 742 l 533 924 l 721 924 l 721 742 l 899 742 l 899 556 l 721 556 l 721 426 m 324 138 l 324 843 l 300 843 l 300 660 l 113 660 l 113 638 l 300 638 l 300 344 l 113 344 l 113 321 l 300 321 l 300 138 l 324 138 m 406 660 l 406 638 l 533 638 l 533 660 l 406 660 m 406 556 l 406 426 l 533 426 l 533 556 l 406 556 m 406 321 l 533 321 l 533 344 l 406 344 l 406 321 m 818 321 l 818 344 l 639 344 l 639 638 l 818 638 l 818 660 l 639 660 l 639 843 l 615 843 l 615 138 l 639 138 l 639 321 l 818 321 z "},"$":{"ha":1061,"x_min":22,"x_max":1039,"o":"m 729 625 q 859 601 801 625 q 956 536 917 578 q 1017 435 996 494 q 1039 306 1039 376 q 1014 187 1039 242 q 946 90 989 132 q 847 25 903 49 q 729 0 792 1 l 729 -137 l 569 -137 l 569 0 l 500 0 l 500 -137 l 340 -137 l 340 0 l 31 0 l 28 250 l 340 250 l 340 375 q 217 396 275 375 q 117 456 160 417 q 48 549 74 494 q 22 672 22 604 q 47 782 22 726 q 115 876 72 838 q 217 935 158 914 q 340 957 275 956 l 340 1099 l 500 1097 l 500 956 l 569 956 l 569 1097 l 729 1097 l 729 957 l 1028 957 l 1031 706 l 729 706 l 729 625 m 729 110 q 810 128 772 111 q 874 172 847 144 q 915 238 900 200 q 931 319 931 275 q 917 385 931 351 q 883 442 904 418 q 783 501 843 488 q 665 515 724 515 l 665 706 l 636 706 l 636 515 l 436 515 l 436 706 l 407 706 l 407 515 q 323 519 367 514 q 244 542 279 525 q 185 590 208 558 q 163 672 163 621 q 175 720 163 692 q 208 769 188 749 q 258 803 229 790 q 319 815 286 815 l 954 815 l 954 846 l 665 846 l 665 994 l 636 994 l 636 846 l 436 846 l 436 994 l 407 994 l 407 846 l 319 846 q 246 831 281 846 q 185 791 211 817 q 145 731 160 765 q 131 672 131 697 q 148 591 131 624 q 194 538 165 558 q 261 506 224 517 q 340 492 299 496 q 374 487 356 489 q 407 486 392 485 l 407 250 l 436 250 l 436 486 l 636 486 l 636 250 l 665 250 l 665 488 q 755 480 713 488 q 829 451 797 472 q 880 393 861 429 q 899 301 899 357 q 884 239 899 268 q 846 188 869 210 q 792 154 822 167 q 729 140 761 142 q 683 140 706 139 q 636 140 660 140 l 436 140 l 101 140 l 101 110 l 407 110 l 407 -60 l 436 -60 l 436 110 l 636 110 l 636 -60 l 665 -60 l 665 110 l 729 110 m 569 250 l 569 375 l 500 375 l 500 250 l 569 250 m 729 250 q 772 269 754 251 q 789 313 789 288 q 771 355 789 336 q 729 375 753 374 l 729 250 m 500 706 l 500 625 l 569 625 l 569 706 l 500 706 m 319 706 q 286 692 300 706 q 272 672 272 678 q 286 639 272 653 q 319 625 300 625 l 340 625 l 340 706 l 319 706 z "},"%":{"ha":967,"x_min":22,"x_max":944,"o":"m 835 967 l 404 1 l 131 1 l 561 967 l 835 967 m 333 111 l 667 863 l 632 863 l 299 111 l 333 111 m 382 824 l 382 678 q 372 626 382 650 q 343 585 361 603 q 301 556 325 567 q 250 546 276 546 l 156 546 q 104 556 128 546 q 62 585 81 567 q 33 626 43 603 q 22 678 22 650 l 22 824 q 33 874 22 850 q 62 917 43 899 q 104 947 81 936 q 156 957 128 957 l 250 957 q 301 947 276 957 q 343 917 325 936 q 372 874 361 899 q 382 824 382 850 m 276 678 l 276 824 q 269 842 276 835 q 250 850 261 850 l 156 850 q 129 824 129 850 l 129 678 q 156 651 129 651 l 250 651 q 269 659 261 651 q 276 678 276 667 m 944 278 l 944 132 q 934 81 944 104 q 906 39 924 57 q 863 10 888 21 q 813 0 839 0 l 718 0 q 667 10 690 0 q 624 39 643 21 q 595 81 606 57 q 585 132 585 104 l 585 278 q 595 328 585 304 q 624 372 606 353 q 667 401 643 390 q 718 411 690 411 l 813 411 q 863 401 839 411 q 906 372 888 390 q 934 328 924 353 q 944 278 944 304 m 839 132 l 839 278 q 831 297 839 289 q 813 304 824 304 l 718 304 q 692 278 692 304 l 692 132 q 718 106 692 106 l 813 106 q 831 113 824 106 q 839 132 839 121 z "},"'":{"ha":321,"x_min":38,"x_max":288,"o":"m 181 782 l 181 843 l 149 843 l 149 721 l 181 782 m 288 936 l 288 718 l 163 529 l 38 529 l 38 936 l 288 936 z "},"(":{"ha":336,"x_min":31,"x_max":401,"o":"m 31 8 l 31 947 q 55 1068 31 1011 q 122 1168 79 1125 q 222 1236 165 1211 q 344 1261 279 1261 l 401 1261 l 401 1010 q 360 1010 382 1010 q 322 1007 339 1011 q 293 990 304 1003 q 282 949 282 976 l 282 7 q 293 -34 282 -21 q 322 -51 304 -47 q 360 -55 339 -56 q 401 -54 382 -54 l 401 -306 l 328 -306 q 213 -278 267 -306 q 118 -208 158 -251 q 54 -108 78 -164 q 31 8 31 -51 m 140 8 q 156 -71 140 -33 q 200 -136 172 -108 q 265 -180 228 -164 q 344 -196 303 -196 l 344 -164 q 277 -151 308 -164 q 222 -114 246 -137 q 185 -59 199 -90 q 172 8 172 -28 l 172 947 q 185 1015 172 983 q 222 1069 199 1046 q 277 1106 246 1093 q 344 1119 308 1119 l 344 1151 q 265 1135 303 1151 q 200 1092 228 1119 q 156 1026 172 1064 q 140 947 140 989 l 140 8 z "},")":{"ha":336,"x_min":-86,"x_max":285,"o":"m 285 957 l 285 18 q 260 -103 285 -46 q 193 -203 236 -160 q 93 -271 150 -246 q -29 -296 36 -296 l -86 -296 l -86 -44 q -45 -45 -67 -44 q -6 -42 -24 -46 q 22 -24 11 -37 q 33 17 33 -11 l 33 958 q 22 999 33 986 q -6 1017 11 1013 q -45 1020 -24 1021 q -86 1019 -67 1019 l -86 1271 l -12 1271 q 103 1244 49 1271 q 197 1173 157 1217 q 261 1073 238 1129 q 285 957 285 1017 m 175 957 q 159 1036 175 999 q 115 1101 143 1074 q 50 1145 88 1129 q -29 1161 13 1161 l -29 1129 q 38 1116 7 1129 q 93 1079 69 1103 q 130 1024 117 1056 q 143 957 143 993 l 143 18 q 130 -49 143 -18 q 93 -104 117 -81 q 38 -141 69 -128 q -29 -154 7 -154 l -29 -186 q 50 -170 13 -186 q 115 -126 88 -154 q 159 -61 143 -99 q 175 18 175 -24 l 175 957 z "},"€":{"ha":885,"x_min":28,"x_max":854,"o":"m 417 718 q 376 703 394 718 q 356 664 358 688 l 742 664 l 742 506 l 354 506 l 354 457 l 742 457 l 742 297 l 357 297 q 379 264 363 278 q 417 250 396 250 l 854 250 l 854 0 l 417 0 q 299 24 354 0 q 201 88 243 47 q 135 182 160 128 q 107 297 110 236 l 28 297 l 28 457 l 107 457 l 107 506 l 28 506 l 28 664 l 107 664 q 134 781 108 726 q 201 878 160 836 q 299 943 243 919 q 417 967 354 967 l 854 967 l 854 718 l 417 718 m 417 142 q 246 297 253 142 l 215 297 q 417 110 221 110 l 793 110 l 793 142 l 417 142 m 107 597 l 107 568 l 215 568 l 215 390 l 107 390 l 107 361 l 640 361 l 640 390 l 244 390 l 244 568 l 640 568 l 640 597 l 107 597 m 246 664 q 417 828 250 828 l 793 828 l 793 857 l 417 857 q 215 664 219 857 l 246 664 z "},"Ä":{"ha":856,"x_min":35,"x_max":817,"o":"m 178 1117 l 306 1117 l 306 1149 l 178 1149 l 178 1117 m 390 1240 l 390 1021 l 94 1021 l 94 1240 l 390 1240 m 539 1117 l 667 1117 l 667 1149 l 539 1149 l 539 1117 m 749 1240 l 749 1021 l 453 1021 l 453 1240 l 749 1240 m 504 967 q 625 942 568 967 q 724 874 682 917 q 792 775 767 832 q 817 654 817 718 l 817 0 l 707 0 l 707 654 q 691 733 707 696 q 647 797 675 769 q 583 841 619 825 q 504 857 546 857 l 347 857 q 268 841 306 857 q 203 798 231 825 q 159 733 175 771 q 143 654 143 696 l 143 0 l 35 0 l 35 654 q 59 775 35 718 q 126 875 83 832 q 226 942 169 918 q 347 967 282 967 l 504 967 m 675 394 l 675 0 l 567 0 l 567 283 l 285 283 l 285 0 l 175 0 l 175 394 l 675 394 m 675 426 l 175 426 l 175 654 q 189 720 175 689 q 226 775 203 751 q 280 812 249 799 q 347 825 311 825 l 504 825 q 567 813 536 825 q 622 778 597 800 q 660 728 646 757 q 675 665 675 699 l 675 426 m 567 654 q 548 698 567 679 q 504 717 529 717 l 347 717 q 303 699 321 717 q 285 654 285 681 l 285 538 l 567 538 l 567 654 z "},"Ë":{"ha":825,"x_min":49,"x_max":769,"o":"m 174 1117 l 301 1117 l 301 1149 l 174 1149 l 174 1117 m 386 1240 l 386 1021 l 90 1021 l 90 1240 l 386 1240 m 535 1117 l 663 1117 l 663 1149 l 535 1149 l 535 1117 m 744 1240 l 744 1021 l 449 1021 l 449 1240 l 744 1240 m 158 108 l 707 108 l 707 140 l 190 140 l 190 483 l 613 483 l 613 514 l 190 514 l 190 825 l 707 825 l 707 857 l 158 857 l 158 108 m 769 250 l 769 0 l 49 0 l 49 967 l 769 967 l 769 717 l 300 717 l 300 624 l 675 624 l 675 374 l 300 374 l 300 250 l 769 250 z "},"Ö":{"ha":874,"x_min":31,"x_max":842,"o":"m 188 1117 l 315 1117 l 315 1149 l 188 1149 l 188 1117 m 400 1240 l 400 1021 l 104 1021 l 104 1240 l 400 1240 m 549 1117 l 676 1117 l 676 1149 l 549 1149 l 549 1117 m 758 1240 l 758 1021 l 463 1021 l 463 1240 l 758 1240 m 842 656 l 842 311 q 817 191 842 247 q 751 92 793 135 q 651 25 708 50 q 531 0 594 0 l 343 0 q 222 25 279 0 q 123 92 165 50 q 56 191 81 135 q 31 311 31 247 l 31 656 q 56 776 31 719 q 123 874 81 832 q 222 942 165 917 q 343 967 279 967 l 531 967 q 651 942 594 967 q 751 874 708 917 q 817 776 793 832 q 842 656 842 719 m 733 311 l 733 656 q 531 858 733 858 l 343 858 q 140 656 140 858 l 140 311 q 343 110 140 110 l 531 110 q 733 311 733 110 m 701 656 l 701 311 q 531 140 701 140 l 343 140 q 171 311 171 140 l 171 656 q 343 826 171 826 l 531 826 q 701 656 701 826 m 593 311 l 593 656 q 575 700 593 682 q 531 718 557 718 l 343 718 q 299 700 317 718 q 281 656 281 682 l 281 311 q 299 268 281 286 q 343 250 317 250 l 531 250 q 575 268 557 250 q 593 311 593 286 z "},"Ü":{"ha":842,"x_min":33,"x_max":808,"o":"m 169 1117 l 297 1117 l 297 1149 l 169 1149 l 169 1117 m 382 1240 l 382 1021 l 86 1021 l 86 1240 l 382 1240 m 531 1117 l 658 1117 l 658 1149 l 531 1149 l 531 1117 m 740 1240 l 740 1021 l 444 1021 l 444 1240 l 740 1240 m 808 311 q 783 190 808 247 q 716 91 758 133 q 617 24 674 49 q 497 0 561 0 l 344 0 q 224 24 281 0 q 126 91 168 49 q 58 190 83 133 q 33 311 33 247 l 33 967 l 282 967 l 282 311 q 301 267 282 286 q 344 249 319 249 l 497 249 q 542 267 524 249 q 560 311 560 285 l 560 967 l 808 967 l 808 311 m 699 311 l 699 847 l 668 847 l 668 572 l 668 311 q 497 139 668 139 l 344 139 q 174 311 174 139 l 174 586 l 174 847 l 143 847 l 143 311 q 344 107 143 107 l 497 107 q 699 311 699 107 z "},"ß":{"ha":876,"x_min":31,"x_max":844,"o":"m 779 504 q 826 421 807 471 q 844 328 844 371 q 822 200 844 260 q 758 96 799 140 q 660 26 717 51 q 533 0 603 0 l 346 0 l 346 108 l 533 108 q 610 124 574 108 q 676 167 647 140 q 721 231 704 194 q 738 308 738 267 q 703 424 738 371 q 610 499 668 476 q 653 526 633 508 q 689 565 674 543 q 713 613 704 588 q 721 664 721 639 q 707 737 721 701 q 669 799 693 772 q 612 841 646 825 q 539 857 578 857 l 326 857 q 256 841 289 856 q 197 802 222 826 q 156 745 171 778 q 140 675 140 713 l 140 108 l 169 108 l 169 682 q 183 735 169 710 q 219 781 197 761 q 269 813 242 801 q 324 825 296 825 q 435 826 386 826 q 546 826 485 826 q 601 813 575 826 q 647 776 628 799 q 678 726 667 754 q 690 671 690 699 q 678 611 690 639 q 643 561 665 583 q 592 526 621 539 q 533 514 564 514 l 346 514 l 346 624 l 533 624 q 567 638 553 624 q 581 671 581 651 q 567 703 581 690 q 533 717 553 717 l 326 717 l 326 715 q 293 702 307 715 q 279 669 279 689 l 279 0 l 31 0 l 31 671 q 54 787 31 733 q 118 881 78 840 q 212 944 158 921 q 326 967 265 967 l 533 967 q 650 943 596 967 q 745 879 704 919 q 809 785 786 839 q 832 668 832 731 q 817 582 832 624 q 779 504 803 540 m 533 250 q 578 268 560 250 q 596 313 596 286 q 578 357 596 339 q 533 375 560 375 l 346 375 l 346 483 l 533 483 q 599 469 568 483 q 654 432 631 456 q 692 378 678 408 q 706 313 706 347 q 692 245 706 276 q 655 191 678 214 q 600 154 632 168 q 533 140 568 140 l 346 140 l 346 250 l 533 250 z "},"ä":{"ha":856,"x_min":35,"x_max":817,"o":"m 178 1117 l 306 1117 l 306 1149 l 178 1149 l 178 1117 m 390 1240 l 390 1021 l 94 1021 l 94 1240 l 390 1240 m 539 1117 l 667 1117 l 667 1149 l 539 1149 l 539 1117 m 749 1240 l 749 1021 l 453 1021 l 453 1240 l 749 1240 m 504 967 q 625 942 568 967 q 724 874 682 917 q 792 775 767 832 q 817 654 817 718 l 817 0 l 707 0 l 707 654 q 691 733 707 696 q 647 797 675 769 q 583 841 619 825 q 504 857 546 857 l 347 857 q 268 841 306 857 q 203 798 231 825 q 159 733 175 771 q 143 654 143 696 l 143 0 l 35 0 l 35 654 q 59 775 35 718 q 126 875 83 832 q 226 942 169 918 q 347 967 282 967 l 504 967 m 675 394 l 675 0 l 567 0 l 567 283 l 285 283 l 285 0 l 175 0 l 175 394 l 675 394 m 675 426 l 175 426 l 175 654 q 189 720 175 689 q 226 775 203 751 q 280 812 249 799 q 347 825 311 825 l 504 825 q 567 813 536 825 q 622 778 597 800 q 660 728 646 757 q 675 665 675 699 l 675 426 m 567 654 q 548 698 567 679 q 504 717 529 717 l 347 717 q 303 699 321 717 q 285 654 285 681 l 285 538 l 567 538 l 567 654 z "},"ë":{"ha":825,"x_min":49,"x_max":769,"o":"m 174 1117 l 301 1117 l 301 1149 l 174 1149 l 174 1117 m 386 1240 l 386 1021 l 90 1021 l 90 1240 l 386 1240 m 535 1117 l 663 1117 l 663 1149 l 535 1149 l 535 1117 m 744 1240 l 744 1021 l 449 1021 l 449 1240 l 744 1240 m 158 108 l 707 108 l 707 140 l 190 140 l 190 483 l 613 483 l 613 514 l 190 514 l 190 825 l 707 825 l 707 857 l 158 857 l 158 108 m 769 250 l 769 0 l 49 0 l 49 967 l 769 967 l 769 717 l 300 717 l 300 624 l 675 624 l 675 374 l 300 374 l 300 250 l 769 250 z "},"ö":{"ha":874,"x_min":31,"x_max":842,"o":"m 188 1117 l 315 1117 l 315 1149 l 188 1149 l 188 1117 m 400 1240 l 400 1021 l 104 1021 l 104 1240 l 400 1240 m 549 1117 l 676 1117 l 676 1149 l 549 1149 l 549 1117 m 758 1240 l 758 1021 l 463 1021 l 463 1240 l 758 1240 m 842 656 l 842 311 q 817 191 842 247 q 751 92 793 135 q 651 25 708 50 q 531 0 594 0 l 343 0 q 222 25 279 0 q 123 92 165 50 q 56 191 81 135 q 31 311 31 247 l 31 656 q 56 776 31 719 q 123 874 81 832 q 222 942 165 917 q 343 967 279 967 l 531 967 q 651 942 594 967 q 751 874 708 917 q 817 776 793 832 q 842 656 842 719 m 733 311 l 733 656 q 531 858 733 858 l 343 858 q 140 656 140 858 l 140 311 q 343 110 140 110 l 531 110 q 733 311 733 110 m 701 656 l 701 311 q 531 140 701 140 l 343 140 q 171 311 171 140 l 171 656 q 343 826 171 826 l 531 826 q 701 656 701 826 m 593 311 l 593 656 q 575 700 593 682 q 531 718 557 718 l 343 718 q 299 700 317 718 q 281 656 281 682 l 281 311 q 299 268 281 286 q 343 250 317 250 l 531 250 q 575 268 557 250 q 593 311 593 286 z "},"ü":{"ha":842,"x_min":33,"x_max":808,"o":"m 169 1117 l 297 1117 l 297 1149 l 169 1149 l 169 1117 m 382 1240 l 382 1021 l 86 1021 l 86 1240 l 382 1240 m 531 1117 l 658 1117 l 658 1149 l 531 1149 l 531 1117 m 740 1240 l 740 1021 l 444 1021 l 444 1240 l 740 1240 m 808 311 q 783 190 808 247 q 716 91 758 133 q 617 24 674 49 q 497 0 561 0 l 344 0 q 224 24 281 0 q 126 91 168 49 q 58 190 83 133 q 33 311 33 247 l 33 967 l 282 967 l 282 311 q 301 267 282 286 q 344 249 319 249 l 497 249 q 542 267 524 249 q 560 311 560 285 l 560 967 l 808 967 l 808 311 m 699 311 l 699 847 l 668 847 l 668 572 l 668 311 q 497 139 668 139 l 344 139 q 174 311 174 139 l 174 586 l 174 847 l 143 847 l 143 311 q 344 107 143 107 l 497 107 q 699 311 699 107 z "},"А":{"ha":856,"x_min":35,"x_max":817,"o":"m 504 967 q 625 942 568 967 q 724 874 682 917 q 792 775 767 832 q 817 654 817 718 l 817 0 l 707 0 l 707 654 q 691 733 707 696 q 647 797 675 769 q 583 841 619 825 q 504 857 546 857 l 347 857 q 268 841 306 857 q 203 798 231 825 q 159 733 175 771 q 143 654 143 696 l 143 0 l 35 0 l 35 654 q 59 775 35 718 q 126 875 83 832 q 226 942 169 918 q 347 967 282 967 l 504 967 m 675 394 l 675 0 l 567 0 l 567 283 l 285 283 l 285 0 l 175 0 l 175 394 l 675 394 m 675 426 l 175 426 l 175 654 q 189 720 175 689 q 226 775 203 751 q 280 812 249 799 q 347 825 311 825 l 504 825 q 567 813 536 825 q 622 778 597 800 q 660 728 646 757 q 675 665 675 699 l 675 426 m 567 654 q 548 698 567 679 q 504 717 529 717 l 347 717 q 303 699 321 717 q 285 654 285 681 l 285 538 l 567 538 l 567 654 z "},"Б":{"ha":867,"x_min":33,"x_max":836,"o":"m 282 624 l 524 624 q 644 599 588 624 q 744 531 701 574 q 812 433 788 489 q 836 313 836 376 q 813 193 836 249 q 747 95 789 138 q 647 28 704 53 q 524 0 590 3 l 33 0 l 33 967 l 282 967 l 790 967 l 790 717 l 282 717 l 282 624 m 682 825 l 682 857 l 174 857 l 143 857 l 143 110 l 533 110 q 607 126 572 110 q 669 171 642 143 q 712 235 696 199 q 728 311 728 271 q 712 387 728 350 q 668 452 696 424 q 603 497 640 481 q 524 514 567 514 l 174 514 l 174 825 l 682 825 m 524 482 q 590 469 558 482 q 644 433 621 456 q 682 378 668 410 q 696 311 696 347 q 683 247 696 278 q 647 192 669 215 q 595 153 625 168 q 531 139 565 139 l 174 139 l 174 482 l 524 482 m 282 249 l 524 249 q 567 267 549 249 q 586 311 586 286 q 568 356 586 338 q 524 374 550 374 l 282 374 l 282 249 z "},"В":{"ha":861,"x_min":44,"x_max":831,"o":"m 154 108 l 518 108 q 595 124 558 108 q 660 167 632 140 q 706 231 689 194 q 722 308 722 267 q 688 424 722 371 q 594 499 653 476 q 674 565 642 518 q 706 663 706 613 q 692 735 706 700 q 655 798 679 771 q 597 841 631 825 q 524 857 564 857 l 154 857 l 154 108 m 764 504 q 790 467 778 489 q 812 421 803 444 q 826 373 821 397 q 831 328 831 349 q 808 200 831 260 q 744 96 785 140 q 645 26 703 51 q 518 0 588 0 l 44 0 l 44 967 l 518 967 q 635 944 581 967 q 731 880 690 921 q 794 784 771 839 q 818 667 818 729 q 803 581 818 622 q 764 504 789 540 m 690 313 q 676 245 690 276 q 640 191 663 214 q 585 154 617 168 q 518 140 553 140 l 185 140 l 185 483 l 518 483 q 584 469 553 483 q 639 432 615 456 q 676 378 663 408 q 690 313 690 347 m 581 313 q 563 356 581 338 q 518 374 544 374 l 294 374 l 294 250 l 518 250 q 563 268 544 250 q 581 313 581 286 m 518 514 l 185 514 l 185 825 l 531 826 q 586 813 560 826 q 632 776 613 799 q 663 725 651 753 q 675 669 675 697 q 663 610 675 638 q 628 560 650 582 q 577 526 606 539 q 518 514 549 514 m 565 669 q 551 703 565 689 q 518 717 538 717 l 294 717 l 294 624 l 518 624 q 551 637 538 624 q 565 669 565 650 z "},"Г":{"ha":629,"x_min":33,"x_max":613,"o":"m 143 858 l 143 110 l 175 110 l 175 826 l 521 826 l 521 858 l 143 858 m 285 717 l 285 0 l 33 0 l 33 967 l 613 967 l 613 717 l 285 717 z "},"Д":{"ha":992,"x_min":19,"x_max":971,"o":"m 300 826 l 714 826 l 714 251 l 714 142 l 371 142 l 229 142 q 294 251 279 176 q 299 281 297 265 q 300 311 300 296 l 300 826 m 410 311 q 406 251 410 281 l 604 251 l 604 717 l 410 717 l 410 311 m 971 250 l 971 -104 l 719 -104 l 719 -1 l 719 0 l 604 0 l 268 0 l 268 -103 l 19 -103 l 19 251 l 111 251 q 145 273 132 257 q 158 311 158 289 l 158 967 l 856 967 l 856 251 l 965 251 l 965 250 l 971 250 m 861 0 l 861 140 l 856 140 l 856 142 l 746 142 l 746 251 l 746 858 l 300 860 l 268 860 l 268 311 q 264 251 268 278 q 225 171 254 194 q 140 142 196 147 l 132 142 l 132 -1 l 132 -10 l 164 -10 l 164 0 l 164 110 l 829 108 l 829 0 l 829 -11 l 861 -11 l 861 0 z "},"Е":{"ha":813,"x_min":46,"x_max":767,"o":"m 156 108 l 704 108 l 704 140 l 188 140 l 188 483 l 610 483 l 610 514 l 188 514 l 188 825 l 704 825 l 704 857 l 156 857 l 156 108 m 767 250 l 767 0 l 46 0 l 46 967 l 767 967 l 767 717 l 297 717 l 297 624 l 672 624 l 672 374 l 297 374 l 297 250 l 767 250 z "},"Ж":{"ha":1228,"x_min":35,"x_max":1189,"o":"m 1122 506 q 1170 418 1151 469 q 1189 321 1189 367 l 1189 0 l 939 0 l 939 313 q 920 357 939 339 q 875 375 901 375 l 744 375 l 744 0 l 742 0 l 494 0 l 492 0 l 492 375 l 349 375 q 303 357 322 375 q 285 313 285 339 l 285 0 l 35 0 l 35 321 q 53 418 35 367 q 101 506 72 469 q 83 538 92 519 q 66 578 74 557 q 54 619 58 599 q 50 657 50 639 l 50 967 l 301 967 l 301 672 q 315 639 301 653 q 349 625 329 625 l 492 625 l 492 967 l 494 967 l 742 967 l 744 967 l 744 625 l 875 625 q 908 639 894 625 q 922 672 922 653 l 922 967 l 1174 967 l 1174 657 q 1169 619 1174 639 q 1158 578 1165 599 q 1141 538 1150 557 q 1122 506 1132 519 m 1079 333 q 1068 385 1079 358 q 1039 434 1057 411 q 998 475 1021 457 q 953 501 975 493 q 1033 570 1003 521 q 1064 672 1064 619 l 1064 860 l 1032 860 q 1035 754 1032 814 q 1026 642 1038 694 q 981 553 1015 589 q 875 517 947 517 l 632 517 l 632 860 l 604 860 l 604 517 l 349 517 q 269 533 300 517 q 222 578 239 550 q 197 642 204 606 q 189 716 190 678 q 190 792 188 754 q 192 860 192 829 l 160 860 l 160 672 q 190 570 160 619 q 271 501 221 521 q 225 475 247 493 q 185 434 203 457 q 156 385 167 411 q 144 333 144 358 l 144 125 l 176 125 l 176 313 q 190 380 176 349 q 226 435 203 411 q 281 472 249 458 q 349 485 313 485 l 604 481 l 604 110 l 632 110 l 632 481 l 875 485 q 943 472 911 485 q 998 435 975 458 q 1034 380 1021 411 q 1047 313 1047 349 l 1047 125 l 1079 125 l 1079 333 z "},"З":{"ha":765,"x_min":44,"x_max":731,"o":"m 201 514 l 201 483 l 419 483 q 488 468 457 483 q 542 428 519 453 q 578 374 565 404 q 592 313 592 343 q 578 245 592 276 q 541 191 564 214 q 486 154 518 168 q 419 140 454 140 l 108 140 l 108 108 l 419 108 q 498 124 461 108 q 562 168 535 140 q 605 232 589 196 q 621 310 621 268 q 588 424 621 372 q 496 499 554 476 q 540 526 519 508 q 574 567 560 544 q 597 614 589 589 q 606 664 606 639 q 592 737 606 701 q 555 799 579 772 q 497 841 531 825 q 425 857 464 857 l 108 857 l 108 825 l 425 825 q 488 811 460 825 q 535 774 517 797 q 565 720 554 750 q 575 658 575 690 q 561 601 575 628 q 525 556 547 575 q 475 525 503 536 q 419 514 447 514 l 201 514 m 664 504 q 711 419 692 469 q 731 324 731 368 q 708 198 731 257 q 643 95 685 139 q 544 26 601 51 q 419 0 488 0 l 44 0 l 44 250 l 419 250 q 464 268 446 250 q 482 313 482 286 q 463 355 482 336 q 419 374 444 374 l 139 374 l 139 624 l 419 624 q 453 637 439 624 q 467 669 467 650 q 453 703 467 689 q 419 717 439 717 l 44 717 l 44 967 l 431 967 q 541 942 489 967 q 631 876 593 917 q 692 781 669 835 q 715 669 715 728 q 664 504 715 579 z "},"И":{"ha":853,"x_min":39,"x_max":817,"o":"m 179 857 l 147 857 l 147 110 l 225 110 l 649 828 l 678 828 l 678 110 l 708 110 l 708 857 l 631 857 l 207 142 l 179 142 l 179 857 m 39 967 l 288 967 l 288 493 l 568 967 l 817 967 l 817 0 l 568 0 l 568 476 l 288 0 l 39 0 l 39 967 z "},"а":{"ha":856,"x_min":35,"x_max":817,"o":"m 504 967 q 625 942 568 967 q 724 874 682 917 q 792 775 767 832 q 817 654 817 718 l 817 0 l 707 0 l 707 654 q 691 733 707 696 q 647 797 675 769 q 583 841 619 825 q 504 857 546 857 l 347 857 q 268 841 306 857 q 203 798 231 825 q 159 733 175 771 q 143 654 143 696 l 143 0 l 35 0 l 35 654 q 59 775 35 718 q 126 875 83 832 q 226 942 169 918 q 347 967 282 967 l 504 967 m 675 394 l 675 0 l 567 0 l 567 283 l 285 283 l 285 0 l 175 0 l 175 394 l 675 394 m 675 426 l 175 426 l 175 654 q 189 720 175 689 q 226 775 203 751 q 280 812 249 799 q 347 825 311 825 l 504 825 q 567 813 536 825 q 622 778 597 800 q 660 728 646 757 q 675 665 675 699 l 675 426 m 567 654 q 548 698 567 679 q 504 717 529 717 l 347 717 q 303 699 321 717 q 285 654 285 681 l 285 538 l 567 538 l 567 654 z "},"б":{"ha":867,"x_min":33,"x_max":836,"o":"m 282 624 l 524 624 q 644 599 588 624 q 744 531 701 574 q 812 433 788 489 q 836 313 836 376 q 813 193 836 249 q 747 95 789 138 q 647 28 704 53 q 524 0 590 3 l 33 0 l 33 967 l 282 967 l 790 967 l 790 717 l 282 717 l 282 624 m 682 825 l 682 857 l 174 857 l 143 857 l 143 110 l 533 110 q 607 126 572 110 q 669 171 642 143 q 712 235 696 199 q 728 311 728 271 q 712 387 728 350 q 668 452 696 424 q 603 497 640 481 q 524 514 567 514 l 174 514 l 174 825 l 682 825 m 524 482 q 590 469 558 482 q 644 433 621 456 q 682 378 668 410 q 696 311 696 347 q 683 247 696 278 q 647 192 669 215 q 595 153 625 168 q 531 139 565 139 l 174 139 l 174 482 l 524 482 m 282 249 l 524 249 q 567 267 549 249 q 586 311 586 286 q 568 356 586 338 q 524 374 550 374 l 282 374 l 282 249 z "},"в":{"ha":861,"x_min":44,"x_max":831,"o":"m 154 108 l 518 108 q 595 124 558 108 q 660 167 632 140 q 706 231 689 194 q 722 308 722 267 q 688 424 722 371 q 594 499 653 476 q 674 565 642 518 q 706 663 706 613 q 692 735 706 700 q 655 798 679 771 q 597 841 631 825 q 524 857 564 857 l 154 857 l 154 108 m 764 504 q 790 467 778 489 q 812 421 803 444 q 826 373 821 397 q 831 328 831 349 q 808 200 831 260 q 744 96 785 140 q 645 26 703 51 q 518 0 588 0 l 44 0 l 44 967 l 518 967 q 635 944 581 967 q 731 880 690 921 q 794 784 771 839 q 818 667 818 729 q 803 581 818 622 q 764 504 789 540 m 690 313 q 676 245 690 276 q 640 191 663 214 q 585 154 617 168 q 518 140 553 140 l 185 140 l 185 483 l 518 483 q 584 469 553 483 q 639 432 615 456 q 676 378 663 408 q 690 313 690 347 m 581 313 q 563 356 581 338 q 518 374 544 374 l 294 374 l 294 250 l 518 250 q 563 268 544 250 q 581 313 581 286 m 518 514 l 185 514 l 185 825 l 531 826 q 586 813 560 826 q 632 776 613 799 q 663 725 651 753 q 675 669 675 697 q 663 610 675 638 q 628 560 650 582 q 577 526 606 539 q 518 514 549 514 m 565 669 q 551 703 565 689 q 518 717 538 717 l 294 717 l 294 624 l 518 624 q 551 637 538 624 q 565 669 565 650 z "},"г":{"ha":629,"x_min":33,"x_max":613,"o":"m 143 858 l 143 110 l 175 110 l 175 826 l 521 826 l 521 858 l 143 858 m 285 717 l 285 0 l 33 0 l 33 967 l 613 967 l 613 717 l 285 717 z "},"д":{"ha":992,"x_min":19,"x_max":971,"o":"m 300 826 l 714 826 l 714 251 l 714 142 l 371 142 l 229 142 q 294 251 279 176 q 299 281 297 265 q 300 311 300 296 l 300 826 m 410 311 q 406 251 410 281 l 604 251 l 604 717 l 410 717 l 410 311 m 971 250 l 971 -104 l 719 -104 l 719 -1 l 719 0 l 604 0 l 268 0 l 268 -103 l 19 -103 l 19 251 l 111 251 q 145 273 132 257 q 158 311 158 289 l 158 967 l 856 967 l 856 251 l 965 251 l 965 250 l 971 250 m 861 0 l 861 140 l 856 140 l 856 142 l 746 142 l 746 251 l 746 858 l 300 860 l 268 860 l 268 311 q 264 251 268 278 q 225 171 254 194 q 140 142 196 147 l 132 142 l 132 -1 l 132 -10 l 164 -10 l 164 0 l 164 110 l 829 108 l 829 0 l 829 -11 l 861 -11 l 861 0 z "},"е":{"ha":813,"x_min":46,"x_max":767,"o":"m 156 108 l 704 108 l 704 140 l 188 140 l 188 483 l 610 483 l 610 514 l 188 514 l 188 825 l 704 825 l 704 857 l 156 857 l 156 108 m 767 250 l 767 0 l 46 0 l 46 967 l 767 967 l 767 717 l 297 717 l 297 624 l 672 624 l 672 374 l 297 374 l 297 250 l 767 250 z "},"ж":{"ha":1228,"x_min":35,"x_max":1189,"o":"m 1122 506 q 1170 418 1151 469 q 1189 321 1189 367 l 1189 0 l 939 0 l 939 313 q 920 357 939 339 q 875 375 901 375 l 744 375 l 744 0 l 742 0 l 494 0 l 492 0 l 492 375 l 349 375 q 303 357 322 375 q 285 313 285 339 l 285 0 l 35 0 l 35 321 q 53 418 35 367 q 101 506 72 469 q 83 538 92 519 q 66 578 74 557 q 54 619 58 599 q 50 657 50 639 l 50 967 l 301 967 l 301 672 q 315 639 301 653 q 349 625 329 625 l 492 625 l 492 967 l 494 967 l 742 967 l 744 967 l 744 625 l 875 625 q 908 639 894 625 q 922 672 922 653 l 922 967 l 1174 967 l 1174 657 q 1169 619 1174 639 q 1158 578 1165 599 q 1141 538 1150 557 q 1122 506 1132 519 m 1079 333 q 1068 385 1079 358 q 1039 434 1057 411 q 998 475 1021 457 q 953 501 975 493 q 1033 570 1003 521 q 1064 672 1064 619 l 1064 860 l 1032 860 q 1035 754 1032 814 q 1026 642 1038 694 q 981 553 1015 589 q 875 517 947 517 l 632 517 l 632 860 l 604 860 l 604 517 l 349 517 q 269 533 300 517 q 222 578 239 550 q 197 642 204 606 q 189 716 190 678 q 190 792 188 754 q 192 860 192 829 l 160 860 l 160 672 q 190 570 160 619 q 271 501 221 521 q 225 475 247 493 q 185 434 203 457 q 156 385 167 411 q 144 333 144 358 l 144 125 l 176 125 l 176 313 q 190 380 176 349 q 226 435 203 411 q 281 472 249 458 q 349 485 313 485 l 604 481 l 604 110 l 632 110 l 632 481 l 875 485 q 943 472 911 485 q 998 435 975 458 q 1034 380 1021 411 q 1047 313 1047 349 l 1047 125 l 1079 125 l 1079 333 z "},"з":{"ha":765,"x_min":44,"x_max":731,"o":"m 201 514 l 201 483 l 419 483 q 488 468 457 483 q 542 428 519 453 q 578 374 565 404 q 592 313 592 343 q 578 245 592 276 q 541 191 564 214 q 486 154 518 168 q 419 140 454 140 l 108 140 l 108 108 l 419 108 q 498 124 461 108 q 562 168 535 140 q 605 232 589 196 q 621 310 621 268 q 588 424 621 372 q 496 499 554 476 q 540 526 519 508 q 574 567 560 544 q 597 614 589 589 q 606 664 606 639 q 592 737 606 701 q 555 799 579 772 q 497 841 531 825 q 425 857 464 857 l 108 857 l 108 825 l 425 825 q 488 811 460 825 q 535 774 517 797 q 565 720 554 750 q 575 658 575 690 q 561 601 575 628 q 525 556 547 575 q 475 525 503 536 q 419 514 447 514 l 201 514 m 664 504 q 711 419 692 469 q 731 324 731 368 q 708 198 731 257 q 643 95 685 139 q 544 26 601 51 q 419 0 488 0 l 44 0 l 44 250 l 419 250 q 464 268 446 250 q 482 313 482 286 q 463 355 482 336 q 419 374 444 374 l 139 374 l 139 624 l 419 624 q 453 637 439 624 q 467 669 467 650 q 453 703 467 689 q 419 717 439 717 l 44 717 l 44 967 l 431 967 q 541 942 489 967 q 631 876 593 917 q 692 781 669 835 q 715 669 715 728 q 664 504 715 579 z "},"и":{"ha":853,"x_min":39,"x_max":817,"o":"m 179 857 l 147 857 l 147 110 l 225 110 l 649 828 l 678 828 l 678 110 l 708 110 l 708 857 l 631 857 l 207 142 l 179 142 l 179 857 m 39 967 l 288 967 l 288 493 l 568 967 l 817 967 l 817 0 l 568 0 l 568 476 l 288 0 l 39 0 l 39 967 z "},"К":{"ha":876,"x_min":42,"x_max":838,"o":"m 696 125 l 728 125 l 728 332 q 717 383 728 357 q 688 433 706 410 q 647 474 669 456 q 601 500 624 492 q 682 569 651 519 q 713 671 713 618 l 713 857 l 681 857 q 683 751 681 811 q 675 640 686 692 q 630 551 664 588 q 524 515 596 515 l 182 515 l 182 857 l 151 857 l 151 110 l 182 110 l 182 483 l 524 483 q 592 470 560 483 q 647 433 624 457 q 683 378 669 410 q 696 311 696 347 l 696 125 m 771 504 q 819 417 800 468 q 838 319 838 365 l 838 0 l 588 0 l 588 311 q 569 356 588 338 q 524 374 550 374 l 292 374 l 292 0 l 42 0 l 42 967 l 292 967 l 292 624 l 524 624 q 557 638 543 624 q 571 671 571 651 l 571 967 l 822 967 l 822 656 q 818 617 822 638 q 806 576 814 597 q 790 537 799 556 q 771 504 781 518 z "},"Л":{"ha":847,"x_min":39,"x_max":813,"o":"m 813 965 l 813 -1 l 563 -1 l 563 715 l 425 715 l 425 311 q 407 190 425 246 q 351 91 389 133 q 255 24 314 49 q 113 0 196 0 l 39 0 l 39 250 l 113 250 q 157 268 139 250 q 175 311 175 286 l 175 965 l 813 965 m 703 857 l 315 858 l 283 858 l 283 311 q 274 225 283 258 q 243 173 264 192 q 189 147 222 154 q 108 140 156 140 l 108 110 l 117 110 q 267 160 219 110 q 315 311 315 211 l 315 825 l 671 825 l 671 108 l 703 108 l 703 857 z "},"М":{"ha":1142,"x_min":51,"x_max":1092,"o":"m 842 967 l 1092 967 l 1092 0 l 842 0 l 842 381 l 661 0 l 482 0 l 301 381 l 301 0 l 51 0 l 51 967 l 301 967 l 572 396 l 842 967 m 982 108 l 982 857 l 951 857 l 911 857 l 572 139 l 232 857 l 192 857 l 161 857 l 161 108 l 192 108 l 192 826 l 213 826 l 572 67 l 931 826 l 951 826 l 951 108 l 982 108 z "},"Н":{"ha":869,"x_min":43,"x_max":826,"o":"m 826 0 l 575 0 l 575 375 l 294 375 l 294 0 l 43 0 l 43 967 l 294 967 l 294 624 l 575 624 l 575 967 l 826 967 l 826 0 m 717 108 l 717 858 l 685 858 l 685 514 l 185 514 l 185 858 l 153 858 l 153 108 l 185 108 l 185 483 l 685 483 l 685 108 l 717 108 z "},"О":{"ha":847,"x_min":32,"x_max":818,"o":"m 818 656 l 818 313 q 793 192 818 249 q 726 92 768 135 q 626 25 683 50 q 506 0 569 0 l 344 0 q 224 25 281 0 q 124 92 167 50 q 57 192 82 135 q 32 313 32 249 l 32 656 q 57 776 32 719 q 124 876 82 833 q 224 942 167 918 q 344 967 281 967 l 506 967 q 626 942 569 967 q 726 876 683 918 q 793 776 768 833 q 818 656 818 719 m 708 313 l 708 656 q 506 860 708 860 l 344 860 q 142 656 142 860 l 142 313 q 344 110 142 110 l 506 110 q 708 313 708 110 m 676 656 l 676 313 q 506 140 676 140 l 344 140 q 172 313 172 140 l 172 656 q 344 828 172 828 l 506 828 q 676 656 676 828 m 568 313 l 568 656 q 550 700 568 682 q 506 718 532 718 l 344 718 q 300 700 318 718 q 282 656 282 682 l 282 313 q 300 268 282 286 q 344 250 318 250 l 506 250 q 550 268 532 250 q 568 313 568 286 z "},"П":{"ha":828,"x_min":47,"x_max":786,"o":"m 63 967 l 786 967 l 786 0 l 536 0 l 536 717 l 297 717 l 297 0 l 47 0 l 47 965 l 63 965 l 63 967 m 676 110 l 676 858 l 160 858 l 158 858 l 157 110 l 189 110 l 189 826 l 644 826 l 644 110 l 676 110 z "},"Р":{"ha":808,"x_min":43,"x_max":785,"o":"m 643 656 q 629 588 643 619 q 592 533 615 556 q 537 497 568 510 q 471 483 506 483 l 183 483 l 183 826 l 478 826 q 542 813 513 826 q 594 774 572 799 q 630 719 617 750 q 643 656 643 689 m 533 656 q 515 699 533 681 q 471 718 496 718 l 293 718 l 293 593 l 471 593 q 515 611 497 593 q 533 656 533 629 m 471 967 q 595 938 538 964 q 694 871 653 913 q 760 773 736 829 q 785 654 785 717 q 760 533 785 590 q 692 434 735 476 q 592 367 650 392 q 471 343 535 343 l 293 343 l 293 0 l 43 0 l 43 967 l 471 967 m 675 656 q 659 731 675 694 q 616 796 643 768 q 554 840 589 824 q 481 857 519 857 l 153 857 l 153 110 l 183 110 l 183 451 l 471 451 q 551 469 514 451 q 615 514 588 486 q 659 578 643 542 q 675 656 675 615 z "},"С":{"ha":817,"x_min":36,"x_max":788,"o":"m 788 251 l 788 0 l 349 0 q 227 25 283 0 q 128 92 171 50 q 60 192 85 135 q 36 313 36 249 l 36 656 q 61 776 36 719 q 128 876 86 833 q 228 942 171 918 q 349 967 285 967 l 788 967 l 788 718 l 349 718 q 305 699 324 718 q 286 656 286 681 l 286 313 q 305 269 286 288 q 349 251 324 251 l 788 251 m 725 110 l 725 142 l 349 142 q 176 313 176 142 l 176 656 q 349 828 176 828 l 725 828 l 725 858 l 349 858 q 146 656 146 858 l 146 313 q 349 110 146 110 l 725 110 z "},"Т":{"ha":736,"x_min":21,"x_max":710,"o":"m 710 957 l 710 708 l 485 708 l 485 -10 l 236 -10 l 236 708 l 21 708 l 21 957 l 710 957 m 646 817 l 646 849 l 83 849 l 83 817 l 344 817 l 344 100 l 375 100 l 375 817 l 646 817 z "},"У":{"ha":804,"x_min":26,"x_max":767,"o":"m 767 967 l 767 651 l 767 296 q 743 181 767 235 q 679 88 719 128 q 585 24 639 47 q 471 0 532 0 l 47 0 l 44 249 l 454 249 q 494 256 481 249 q 512 275 507 263 q 517 305 517 288 q 517 343 517 322 l 339 343 q 222 366 276 343 q 124 429 167 389 q 56 523 82 469 q 28 638 31 576 l 26 638 l 26 967 l 278 967 l 278 651 q 297 609 279 626 q 339 592 314 592 l 454 592 l 518 592 l 518 678 l 517 678 l 517 967 l 767 967 m 658 858 l 626 858 l 626 651 l 626 483 l 339 483 q 224 527 268 483 q 171 638 179 571 l 168 638 l 168 858 l 136 858 l 136 651 l 136 649 q 172 540 136 589 q 263 467 208 490 q 306 456 278 460 q 368 450 333 451 q 441 449 403 449 q 515 450 479 449 q 580 452 550 451 q 626 453 610 453 l 626 296 q 613 229 626 258 q 575 180 599 200 q 520 149 551 160 q 454 139 489 139 l 131 139 l 131 108 l 471 108 q 544 123 510 108 q 603 163 578 138 q 644 223 629 189 q 658 296 658 257 l 658 651 l 658 858 z "},"Ф":{"ha":978,"x_min":24,"x_max":954,"o":"m 642 967 q 763 943 706 967 q 862 877 819 919 q 929 778 904 835 q 954 657 954 721 l 954 313 q 929 192 954 249 q 862 92 904 135 q 763 25 819 50 q 642 0 706 0 l 618 0 l 618 -89 l 367 -89 l 367 0 l 336 0 q 215 25 272 0 q 116 92 158 50 q 49 192 74 135 q 24 313 24 249 l 24 657 q 49 778 24 721 q 116 877 74 835 q 215 943 158 919 q 336 967 272 967 l 367 967 l 367 1058 l 618 1058 l 618 967 l 642 967 m 844 657 q 642 861 844 861 l 508 861 l 508 947 l 476 947 l 476 861 l 336 861 q 133 657 133 861 l 133 313 q 336 110 133 110 l 476 110 l 476 21 l 508 21 l 508 110 l 618 110 l 642 110 q 844 313 844 110 l 844 657 m 476 829 l 476 140 l 336 140 q 164 313 164 140 l 164 657 q 336 829 164 829 l 476 829 m 367 719 l 336 719 q 292 701 310 719 q 274 657 274 683 l 274 313 q 292 268 274 286 q 336 250 310 250 l 367 250 l 367 719 m 642 829 q 814 657 814 829 l 814 313 q 642 140 814 140 l 618 140 l 508 140 l 508 829 l 642 829 m 704 657 q 686 701 704 683 q 642 719 668 719 l 618 719 l 618 250 l 642 250 q 686 268 668 250 q 704 313 704 286 l 704 657 z "},"Х":{"ha":861,"x_min":13,"x_max":846,"o":"m 846 967 l 571 478 l 839 0 l 553 0 l 429 224 l 304 0 l 19 0 l 286 478 l 13 967 l 297 967 l 429 733 l 560 967 l 846 967 m 447 478 l 668 874 l 632 874 l 429 510 l 225 874 l 190 874 l 411 478 l 197 94 l 232 94 l 429 446 l 625 94 l 661 94 l 447 478 z "},"Ц":{"ha":878,"x_min":44,"x_max":871,"o":"m 865 250 l 871 250 l 871 -104 l 619 -104 l 619 -1 l 619 0 l 44 0 l 44 967 l 296 967 l 296 251 l 332 251 l 332 251 l 338 251 l 506 251 l 506 967 l 757 967 l 757 251 l 865 251 l 865 250 m 761 0 l 761 140 l 756 140 l 756 142 l 647 142 l 647 235 l 646 235 l 647 861 l 615 861 l 615 251 l 617 251 l 617 142 l 615 142 l 615 142 l 186 142 l 186 861 l 154 861 l 154 110 l 729 108 l 729 0 l 729 -11 l 761 -11 l 761 0 z "},"Ч":{"ha":836,"x_min":35,"x_max":786,"o":"m 176 861 l 144 861 l 144 672 q 158 599 144 633 q 194 540 171 565 q 253 499 218 514 q 332 485 288 485 l 536 485 l 646 485 l 646 110 l 676 110 l 676 861 l 646 861 l 646 517 l 332 517 q 253 534 283 517 q 206 579 224 551 q 182 643 189 607 q 174 717 175 679 q 174 793 172 756 q 176 861 176 831 m 786 969 l 786 0 l 536 0 l 536 375 l 332 375 q 217 399 271 375 q 122 463 163 422 q 58 557 82 503 q 35 672 35 611 l 35 969 l 285 969 l 285 672 q 299 640 285 653 q 332 626 313 626 l 536 626 l 536 969 l 786 969 z "},"Ш":{"ha":1168,"x_min":40,"x_max":1129,"o":"m 878 967 l 1129 967 l 1129 1 l 1114 1 l 1114 0 l 40 0 l 40 967 l 290 967 l 290 251 l 460 251 l 460 967 l 461 967 l 711 967 l 713 967 l 713 251 l 878 251 l 878 967 m 1018 110 l 1019 860 l 988 860 l 988 142 l 600 142 l 601 860 l 571 860 l 571 142 l 181 142 l 181 860 l 150 860 l 150 110 l 1017 110 l 1018 110 z "},"к":{"ha":876,"x_min":42,"x_max":838,"o":"m 696 125 l 728 125 l 728 332 q 717 383 728 357 q 688 433 706 410 q 647 474 669 456 q 601 500 624 492 q 682 569 651 519 q 713 671 713 618 l 713 857 l 681 857 q 683 751 681 811 q 675 640 686 692 q 630 551 664 588 q 524 515 596 515 l 182 515 l 182 857 l 151 857 l 151 110 l 182 110 l 182 483 l 524 483 q 592 470 560 483 q 647 433 624 457 q 683 378 669 410 q 696 311 696 347 l 696 125 m 771 504 q 819 417 800 468 q 838 319 838 365 l 838 0 l 588 0 l 588 311 q 569 356 588 338 q 524 374 550 374 l 292 374 l 292 0 l 42 0 l 42 967 l 292 967 l 292 624 l 524 624 q 557 638 543 624 q 571 671 571 651 l 571 967 l 822 967 l 822 656 q 818 617 822 638 q 806 576 814 597 q 790 537 799 556 q 771 504 781 518 z "},"л":{"ha":847,"x_min":39,"x_max":813,"o":"m 813 965 l 813 -1 l 563 -1 l 563 715 l 425 715 l 425 311 q 407 190 425 246 q 351 91 389 133 q 255 24 314 49 q 113 0 196 0 l 39 0 l 39 250 l 113 250 q 157 268 139 250 q 175 311 175 286 l 175 965 l 813 965 m 703 857 l 315 858 l 283 858 l 283 311 q 274 225 283 258 q 243 173 264 192 q 189 147 222 154 q 108 140 156 140 l 108 110 l 117 110 q 267 160 219 110 q 315 311 315 211 l 315 825 l 671 825 l 671 108 l 703 108 l 703 857 z "},"м":{"ha":1142,"x_min":51,"x_max":1092,"o":"m 842 967 l 1092 967 l 1092 0 l 842 0 l 842 381 l 661 0 l 482 0 l 301 381 l 301 0 l 51 0 l 51 967 l 301 967 l 572 396 l 842 967 m 982 108 l 982 857 l 951 857 l 911 857 l 572 139 l 232 857 l 192 857 l 161 857 l 161 108 l 192 108 l 192 826 l 213 826 l 572 67 l 931 826 l 951 826 l 951 108 l 982 108 z "},"н":{"ha":869,"x_min":43,"x_max":826,"o":"m 826 0 l 575 0 l 575 375 l 294 375 l 294 0 l 43 0 l 43 967 l 294 967 l 294 624 l 575 624 l 575 967 l 826 967 l 826 0 m 717 108 l 717 858 l 685 858 l 685 514 l 185 514 l 185 858 l 153 858 l 153 108 l 185 108 l 185 483 l 685 483 l 685 108 l 717 108 z "},"о":{"ha":847,"x_min":32,"x_max":818,"o":"m 818 656 l 818 313 q 793 192 818 249 q 726 92 768 135 q 626 25 683 50 q 506 0 569 0 l 344 0 q 224 25 281 0 q 124 92 167 50 q 57 192 82 135 q 32 313 32 249 l 32 656 q 57 776 32 719 q 124 876 82 833 q 224 942 167 918 q 344 967 281 967 l 506 967 q 626 942 569 967 q 726 876 683 918 q 793 776 768 833 q 818 656 818 719 m 708 313 l 708 656 q 506 860 708 860 l 344 860 q 142 656 142 860 l 142 313 q 344 110 142 110 l 506 110 q 708 313 708 110 m 676 656 l 676 313 q 506 140 676 140 l 344 140 q 172 313 172 140 l 172 656 q 344 828 172 828 l 506 828 q 676 656 676 828 m 568 313 l 568 656 q 550 700 568 682 q 506 718 532 718 l 344 718 q 300 700 318 718 q 282 656 282 682 l 282 313 q 300 268 282 286 q 344 250 318 250 l 506 250 q 550 268 532 250 q 568 313 568 286 z "},"п":{"ha":828,"x_min":47,"x_max":786,"o":"m 63 967 l 786 967 l 786 0 l 536 0 l 536 717 l 297 717 l 297 0 l 47 0 l 47 965 l 63 965 l 63 967 m 676 110 l 676 858 l 160 858 l 158 858 l 157 110 l 189 110 l 189 826 l 644 826 l 644 110 l 676 110 z "},"р":{"ha":808,"x_min":43,"x_max":785,"o":"m 643 656 q 629 588 643 619 q 592 533 615 556 q 537 497 568 510 q 471 483 506 483 l 183 483 l 183 826 l 478 826 q 542 813 513 826 q 594 774 572 799 q 630 719 617 750 q 643 656 643 689 m 533 656 q 515 699 533 681 q 471 718 496 718 l 293 718 l 293 593 l 471 593 q 515 611 497 593 q 533 656 533 629 m 471 967 q 595 938 538 964 q 694 871 653 913 q 760 773 736 829 q 785 654 785 717 q 760 533 785 590 q 692 434 735 476 q 592 367 650 392 q 471 343 535 343 l 293 343 l 293 0 l 43 0 l 43 967 l 471 967 m 675 656 q 659 731 675 694 q 616 796 643 768 q 554 840 589 824 q 481 857 519 857 l 153 857 l 153 110 l 183 110 l 183 451 l 471 451 q 551 469 514 451 q 615 514 588 486 q 659 578 643 542 q 675 656 675 615 z "},"с":{"ha":817,"x_min":36,"x_max":788,"o":"m 788 251 l 788 0 l 349 0 q 227 25 283 0 q 128 92 171 50 q 60 192 85 135 q 36 313 36 249 l 36 656 q 61 776 36 719 q 128 876 86 833 q 228 942 171 918 q 349 967 285 967 l 788 967 l 788 718 l 349 718 q 305 699 324 718 q 286 656 286 681 l 286 313 q 305 269 286 288 q 349 251 324 251 l 788 251 m 725 110 l 725 142 l 349 142 q 176 313 176 142 l 176 656 q 349 828 176 828 l 725 828 l 725 858 l 349 858 q 146 656 146 858 l 146 313 q 349 110 146 110 l 725 110 z "},"т":{"ha":736,"x_min":21,"x_max":710,"o":"m 710 957 l 710 708 l 485 708 l 485 -10 l 236 -10 l 236 708 l 21 708 l 21 957 l 710 957 m 646 817 l 646 849 l 83 849 l 83 817 l 344 817 l 344 100 l 375 100 l 375 817 l 646 817 z "},"у":{"ha":804,"x_min":26,"x_max":767,"o":"m 767 967 l 767 651 l 767 296 q 743 181 767 235 q 679 88 719 128 q 585 24 639 47 q 471 0 532 0 l 47 0 l 44 249 l 454 249 q 494 256 481 249 q 512 275 507 263 q 517 305 517 288 q 517 343 517 322 l 339 343 q 222 366 276 343 q 124 429 167 389 q 56 523 82 469 q 28 638 31 576 l 26 638 l 26 967 l 278 967 l 278 651 q 297 609 279 626 q 339 592 314 592 l 454 592 l 518 592 l 518 678 l 517 678 l 517 967 l 767 967 m 658 858 l 626 858 l 626 651 l 626 483 l 339 483 q 224 527 268 483 q 171 638 179 571 l 168 638 l 168 858 l 136 858 l 136 651 l 136 649 q 172 540 136 589 q 263 467 208 490 q 306 456 278 460 q 368 450 333 451 q 441 449 403 449 q 515 450 479 449 q 580 452 550 451 q 626 453 610 453 l 626 296 q 613 229 626 258 q 575 180 599 200 q 520 149 551 160 q 454 139 489 139 l 131 139 l 131 108 l 471 108 q 544 123 510 108 q 603 163 578 138 q 644 223 629 189 q 658 296 658 257 l 658 651 l 658 858 z "},"ф":{"ha":978,"x_min":24,"x_max":954,"o":"m 642 967 q 763 943 706 967 q 862 877 819 919 q 929 778 904 835 q 954 657 954 721 l 954 313 q 929 192 954 249 q 862 92 904 135 q 763 25 819 50 q 642 0 706 0 l 618 0 l 618 -89 l 367 -89 l 367 0 l 336 0 q 215 25 272 0 q 116 92 158 50 q 49 192 74 135 q 24 313 24 249 l 24 657 q 49 778 24 721 q 116 877 74 835 q 215 943 158 919 q 336 967 272 967 l 367 967 l 367 1058 l 618 1058 l 618 967 l 642 967 m 844 657 q 642 861 844 861 l 508 861 l 508 947 l 476 947 l 476 861 l 336 861 q 133 657 133 861 l 133 313 q 336 110 133 110 l 476 110 l 476 21 l 508 21 l 508 110 l 618 110 l 642 110 q 844 313 844 110 l 844 657 m 476 829 l 476 140 l 336 140 q 164 313 164 140 l 164 657 q 336 829 164 829 l 476 829 m 367 719 l 336 719 q 292 701 310 719 q 274 657 274 683 l 274 313 q 292 268 274 286 q 336 250 310 250 l 367 250 l 367 719 m 642 829 q 814 657 814 829 l 814 313 q 642 140 814 140 l 618 140 l 508 140 l 508 829 l 642 829 m 704 657 q 686 701 704 683 q 642 719 668 719 l 618 719 l 618 250 l 642 250 q 686 268 668 250 q 704 313 704 286 l 704 657 z "},"х":{"ha":861,"x_min":13,"x_max":846,"o":"m 846 967 l 571 478 l 839 0 l 553 0 l 429 224 l 304 0 l 19 0 l 286 478 l 13 967 l 297 967 l 429 733 l 560 967 l 846 967 m 447 478 l 668 874 l 632 874 l 429 510 l 225 874 l 190 874 l 411 478 l 197 94 l 232 94 l 429 446 l 625 94 l 661 94 l 447 478 z "},"ц":{"ha":878,"x_min":44,"x_max":871,"o":"m 865 250 l 871 250 l 871 -104 l 619 -104 l 619 -1 l 619 0 l 44 0 l 44 967 l 296 967 l 296 251 l 332 251 l 332 251 l 338 251 l 506 251 l 506 967 l 757 967 l 757 251 l 865 251 l 865 250 m 761 0 l 761 140 l 756 140 l 756 142 l 647 142 l 647 235 l 646 235 l 647 861 l 615 861 l 615 251 l 617 251 l 617 142 l 615 142 l 615 142 l 186 142 l 186 861 l 154 861 l 154 110 l 729 108 l 729 0 l 729 -11 l 761 -11 l 761 0 z "},"ч":{"ha":836,"x_min":35,"x_max":786,"o":"m 176 861 l 144 861 l 144 672 q 158 599 144 633 q 194 540 171 565 q 253 499 218 514 q 332 485 288 485 l 536 485 l 646 485 l 646 110 l 676 110 l 676 861 l 646 861 l 646 517 l 332 517 q 253 534 283 517 q 206 579 224 551 q 182 643 189 607 q 174 717 175 679 q 174 793 172 756 q 176 861 176 831 m 786 969 l 786 0 l 536 0 l 536 375 l 332 375 q 217 399 271 375 q 122 463 163 422 q 58 557 82 503 q 35 672 35 611 l 35 969 l 285 969 l 285 672 q 299 640 285 653 q 332 626 313 626 l 536 626 l 536 969 l 786 969 z "},"ш":{"ha":1168,"x_min":40,"x_max":1129,"o":"m 878 967 l 1129 967 l 1129 1 l 1114 1 l 1114 0 l 40 0 l 40 967 l 290 967 l 290 251 l 460 251 l 460 967 l 461 967 l 711 967 l 713 967 l 713 251 l 878 251 l 878 967 m 1018 110 l 1019 860 l 988 860 l 988 142 l 600 142 l 601 860 l 571 860 l 571 142 l 181 142 l 181 860 l 150 860 l 150 110 l 1017 110 l 1018 110 z "},"Ј":{"ha":471,"x_min":31,"x_max":438,"o":"m 438 313 q 413 191 438 247 q 345 92 388 135 q 245 24 303 49 q 124 0 188 0 l 31 0 l 31 250 l 124 250 q 168 268 150 250 q 186 313 186 286 l 186 967 l 438 967 l 438 313 m 328 313 l 328 860 l 296 860 l 296 313 q 282 226 296 260 q 242 173 268 192 q 178 147 215 154 q 93 140 140 140 l 93 110 l 124 110 q 328 313 328 110 z "},"Ђ":{"ha":808,"x_min":15,"x_max":788,"o":"m 786 315 q 765 194 788 251 q 702 93 743 136 q 606 25 661 50 q 486 0 550 0 l 400 0 l 400 110 l 488 110 q 566 126 531 110 q 626 172 601 143 q 665 239 651 200 q 678 322 678 278 q 664 388 678 354 q 631 444 650 421 q 551 502 593 488 q 465 519 510 517 l 465 518 l 250 518 l 250 826 l 639 826 l 639 857 l 78 857 l 78 826 l 219 826 l 219 110 l 250 110 l 250 489 l 463 489 q 481 488 472 489 q 497 486 489 488 q 607 425 568 475 q 646 304 646 375 q 633 241 646 271 q 598 189 619 211 q 547 153 576 167 q 488 140 518 140 l 400 140 l 400 249 l 488 249 q 526 269 514 249 q 538 315 538 289 q 519 360 538 342 q 475 378 501 378 l 463 378 l 463 379 l 358 379 l 358 0 l 110 0 l 110 718 l 15 718 l 15 967 l 703 967 l 703 718 l 358 718 l 358 628 l 465 628 l 465 626 l 475 626 q 604 605 547 626 q 701 542 661 583 q 763 444 742 501 q 786 315 785 386 z "},"Љ":{"ha":1135,"x_min":26,"x_max":1126,"o":"m 835 483 q 946 422 907 472 q 985 301 985 372 q 969 240 985 268 q 930 189 954 211 q 874 154 906 167 q 813 142 843 142 l 800 142 l 692 142 l 692 488 l 800 488 q 817 486 808 486 q 835 483 826 486 m 813 251 q 857 269 839 251 q 875 313 875 286 q 857 357 875 339 q 813 375 839 375 l 800 375 l 800 251 l 813 251 m 1125 310 q 1102 190 1126 246 q 1035 92 1078 133 q 934 26 992 50 q 811 1 876 1 l 800 1 l 550 1 l 550 717 l 413 717 l 413 311 q 394 190 413 246 q 339 91 376 133 q 242 24 301 49 q 100 0 183 0 l 26 0 l 26 250 l 100 250 q 144 267 126 250 q 163 311 163 285 l 163 967 l 800 967 l 800 622 l 813 622 q 1040 538 958 622 q 1125 310 1122 453 m 813 108 q 894 125 857 108 q 959 169 932 142 q 1001 235 986 197 q 1017 317 1017 274 q 1003 382 1017 349 q 969 439 989 415 q 888 499 932 483 q 800 517 844 514 l 692 517 l 692 857 l 303 858 l 271 858 l 271 311 q 261 225 271 258 q 231 173 251 192 q 176 147 210 154 q 96 140 143 140 l 96 110 l 104 110 q 255 160 207 110 q 303 311 303 211 l 303 825 l 660 825 l 660 108 l 813 108 z "},"Њ":{"ha":1104,"x_min":39,"x_max":1085,"o":"m 794 481 q 904 422 865 469 q 943 304 943 375 q 928 242 943 271 q 888 190 913 213 q 829 155 863 168 q 761 142 796 142 l 651 142 l 651 483 l 761 483 q 778 483 769 483 q 794 481 786 482 m 772 253 q 817 271 799 253 q 835 315 835 289 q 817 360 835 342 q 772 378 799 378 l 761 378 l 761 253 l 772 253 m 1083 313 q 1060 191 1085 247 q 993 92 1036 135 q 892 24 950 49 q 771 0 835 0 l 761 0 l 510 0 l 510 375 l 290 375 l 290 0 l 39 0 l 39 967 l 290 967 l 290 624 l 510 624 l 510 967 l 761 967 l 761 624 l 772 624 q 901 601 844 624 q 999 539 958 579 q 1060 441 1039 499 q 1083 313 1082 383 m 772 110 q 853 126 815 110 q 917 171 890 143 q 960 237 944 199 q 975 319 975 275 q 961 385 975 351 q 928 442 947 418 q 849 497 892 483 q 761 513 806 510 l 651 513 l 651 858 l 619 858 l 619 514 l 568 514 l 181 514 l 181 858 l 149 858 l 149 108 l 181 108 l 181 483 l 619 483 l 619 110 l 772 110 z "},"Ћ":{"ha":836,"x_min":19,"x_max":800,"o":"m 489 628 q 610 603 553 628 q 709 535 667 578 q 776 437 751 493 q 800 317 800 381 l 800 0 l 551 0 l 551 317 q 533 360 551 342 q 489 379 514 379 l 363 379 l 363 0 l 113 0 l 113 717 l 19 717 l 19 967 l 706 967 l 706 717 l 363 717 l 363 628 l 489 628 m 692 317 q 489 518 692 518 l 253 518 l 253 825 l 643 825 l 643 857 l 81 857 l 81 825 l 222 825 l 222 108 l 253 108 l 253 488 l 489 488 q 661 317 661 488 l 661 63 l 692 63 l 692 317 z "},"Џ":{"ha":813,"x_min":33,"x_max":775,"o":"m 524 967 l 775 967 l 775 1 l 760 1 l 760 0 l 540 0 l 540 -128 l 289 -128 l 289 0 l 33 0 l 33 967 l 285 967 l 285 251 l 524 251 l 524 967 m 664 110 l 665 861 l 633 861 l 633 142 l 175 142 l 175 861 l 143 861 l 143 110 l 399 110 l 399 -35 l 431 -35 l 431 110 l 663 110 l 664 110 z "},"ђ":{"ha":808,"x_min":15,"x_max":788,"o":"m 786 315 q 765 194 788 251 q 702 93 743 136 q 606 25 661 50 q 486 0 550 0 l 400 0 l 400 110 l 488 110 q 566 126 531 110 q 626 172 601 143 q 665 239 651 200 q 678 322 678 278 q 664 388 678 354 q 631 444 650 421 q 551 502 593 488 q 465 519 510 517 l 465 518 l 250 518 l 250 826 l 639 826 l 639 857 l 78 857 l 78 826 l 219 826 l 219 110 l 250 110 l 250 489 l 463 489 q 481 488 472 489 q 497 486 489 488 q 607 425 568 475 q 646 304 646 375 q 633 241 646 271 q 598 189 619 211 q 547 153 576 167 q 488 140 518 140 l 400 140 l 400 249 l 488 249 q 526 269 514 249 q 538 315 538 289 q 519 360 538 342 q 475 378 501 378 l 463 378 l 463 379 l 358 379 l 358 0 l 110 0 l 110 718 l 15 718 l 15 967 l 703 967 l 703 718 l 358 718 l 358 628 l 465 628 l 465 626 l 475 626 q 604 605 547 626 q 701 542 661 583 q 763 444 742 501 q 786 315 785 386 z "},"љ":{"ha":1135,"x_min":26,"x_max":1126,"o":"m 835 483 q 946 422 907 472 q 985 301 985 372 q 969 240 985 268 q 930 189 954 211 q 874 154 906 167 q 813 142 843 142 l 800 142 l 692 142 l 692 488 l 800 488 q 817 486 808 486 q 835 483 826 486 m 813 251 q 857 269 839 251 q 875 313 875 286 q 857 357 875 339 q 813 375 839 375 l 800 375 l 800 251 l 813 251 m 1125 310 q 1102 190 1126 246 q 1035 92 1078 133 q 934 26 992 50 q 811 1 876 1 l 800 1 l 550 1 l 550 717 l 413 717 l 413 311 q 394 190 413 246 q 339 91 376 133 q 242 24 301 49 q 100 0 183 0 l 26 0 l 26 250 l 100 250 q 144 267 126 250 q 163 311 163 285 l 163 967 l 800 967 l 800 622 l 813 622 q 1040 538 958 622 q 1125 310 1122 453 m 813 108 q 894 125 857 108 q 959 169 932 142 q 1001 235 986 197 q 1017 317 1017 274 q 1003 382 1017 349 q 969 439 989 415 q 888 499 932 483 q 800 517 844 514 l 692 517 l 692 857 l 303 858 l 271 858 l 271 311 q 261 225 271 258 q 231 173 251 192 q 176 147 210 154 q 96 140 143 140 l 96 110 l 104 110 q 255 160 207 110 q 303 311 303 211 l 303 825 l 660 825 l 660 108 l 813 108 z "},"њ":{"ha":1104,"x_min":39,"x_max":1085,"o":"m 794 481 q 904 422 865 469 q 943 304 943 375 q 928 242 943 271 q 888 190 913 213 q 829 155 863 168 q 761 142 796 142 l 651 142 l 651 483 l 761 483 q 778 483 769 483 q 794 481 786 482 m 772 253 q 817 271 799 253 q 835 315 835 289 q 817 360 835 342 q 772 378 799 378 l 761 378 l 761 253 l 772 253 m 1083 313 q 1060 191 1085 247 q 993 92 1036 135 q 892 24 950 49 q 771 0 835 0 l 761 0 l 510 0 l 510 375 l 290 375 l 290 0 l 39 0 l 39 967 l 290 967 l 290 624 l 510 624 l 510 967 l 761 967 l 761 624 l 772 624 q 901 601 844 624 q 999 539 958 579 q 1060 441 1039 499 q 1083 313 1082 383 m 772 110 q 853 126 815 110 q 917 171 890 143 q 960 237 944 199 q 975 319 975 275 q 961 385 975 351 q 928 442 947 418 q 849 497 892 483 q 761 513 806 510 l 651 513 l 651 858 l 619 858 l 619 514 l 568 514 l 181 514 l 181 858 l 149 858 l 149 108 l 181 108 l 181 483 l 619 483 l 619 110 l 772 110 z "},"ћ":{"ha":836,"x_min":19,"x_max":800,"o":"m 489 628 q 610 603 553 628 q 709 535 667 578 q 776 437 751 493 q 800 317 800 381 l 800 0 l 551 0 l 551 317 q 533 360 551 342 q 489 379 514 379 l 363 379 l 363 0 l 113 0 l 113 717 l 19 717 l 19 967 l 706 967 l 706 717 l 363 717 l 363 628 l 489 628 m 692 317 q 489 518 692 518 l 253 518 l 253 825 l 643 825 l 643 857 l 81 857 l 81 825 l 222 825 l 222 108 l 253 108 l 253 488 l 489 488 q 661 317 661 488 l 661 63 l 692 63 l 692 317 z "},"џ":{"ha":813,"x_min":33,"x_max":775,"o":"m 524 967 l 775 967 l 775 1 l 760 1 l 760 0 l 540 0 l 540 -128 l 289 -128 l 289 0 l 33 0 l 33 967 l 285 967 l 285 251 l 524 251 l 524 967 m 664 110 l 665 861 l 633 861 l 633 142 l 175 142 l 175 861 l 143 861 l 143 110 l 399 110 l 399 -35 l 431 -35 l 431 110 l 663 110 l 664 110 z "},"ј":{"ha":471,"x_min":31,"x_max":438,"o":"m 438 313 q 413 191 438 247 q 345 92 388 135 q 245 24 303 49 q 124 0 188 0 l 31 0 l 31 250 l 124 250 q 168 268 150 250 q 186 313 186 286 l 186 967 l 438 967 l 438 313 m 328 313 l 328 860 l 296 860 l 296 313 q 282 226 296 260 q 242 173 268 192 q 178 147 215 154 q 93 140 140 140 l 93 110 l 124 110 q 328 313 328 110 z "},"b":{"ha":861,"x_min":44,"x_max":831,"o":"m 154 108 l 518 108 q 595 124 558 108 q 660 167 632 140 q 706 231 689 194 q 722 308 722 267 q 688 424 722 371 q 594 499 653 476 q 674 565 642 518 q 706 663 706 613 q 692 735 706 700 q 655 798 679 771 q 597 841 631 825 q 524 857 564 857 l 154 857 l 154 108 m 764 504 q 790 467 778 489 q 812 421 803 444 q 826 373 821 397 q 831 328 831 349 q 808 200 831 260 q 744 96 785 140 q 645 26 703 51 q 518 0 588 0 l 44 0 l 44 967 l 518 967 q 635 944 581 967 q 731 880 690 921 q 794 784 771 839 q 818 667 818 729 q 803 581 818 622 q 764 504 789 540 m 690 313 q 676 245 690 276 q 640 191 663 214 q 585 154 617 168 q 518 140 553 140 l 185 140 l 185 483 l 518 483 q 584 469 553 483 q 639 432 615 456 q 676 378 663 408 q 690 313 690 347 m 581 313 q 563 356 581 338 q 518 374 544 374 l 294 374 l 294 250 l 518 250 q 563 268 544 250 q 581 313 581 286 m 518 514 l 185 514 l 185 825 l 531 826 q 586 813 560 826 q 632 776 613 799 q 663 725 651 753 q 675 669 675 697 q 663 610 675 638 q 628 560 650 582 q 577 526 606 539 q 518 514 549 514 m 565 669 q 551 703 565 689 q 518 717 538 717 l 294 717 l 294 624 l 518 624 q 551 637 538 624 q 565 669 565 650 z "},"c":{"ha":817,"x_min":36,"x_max":788,"o":"m 788 251 l 788 0 l 349 0 q 227 25 283 0 q 128 92 171 50 q 60 192 85 135 q 36 313 36 249 l 36 656 q 61 776 36 719 q 128 876 86 833 q 228 942 171 918 q 349 967 285 967 l 788 967 l 788 718 l 349 718 q 305 699 324 718 q 286 656 286 681 l 286 313 q 305 269 286 288 q 349 251 324 251 l 788 251 m 725 110 l 725 142 l 349 142 q 176 313 176 142 l 176 656 q 349 828 176 828 l 725 828 l 725 858 l 349 858 q 146 656 146 858 l 146 313 q 349 110 146 110 l 725 110 z "},"a":{"ha":856,"x_min":35,"x_max":817,"o":"m 504 967 q 625 942 568 967 q 724 874 682 917 q 792 775 767 832 q 817 654 817 718 l 817 0 l 707 0 l 707 654 q 691 733 707 696 q 647 797 675 769 q 583 841 619 825 q 504 857 546 857 l 347 857 q 268 841 306 857 q 203 798 231 825 q 159 733 175 771 q 143 654 143 696 l 143 0 l 35 0 l 35 654 q 59 775 35 718 q 126 875 83 832 q 226 942 169 918 q 347 967 282 967 l 504 967 m 675 394 l 675 0 l 567 0 l 567 283 l 285 283 l 285 0 l 175 0 l 175 394 l 675 394 m 675 426 l 175 426 l 175 654 q 189 720 175 689 q 226 775 203 751 q 280 812 249 799 q 347 825 311 825 l 504 825 q 567 813 536 825 q 622 778 597 800 q 660 728 646 757 q 675 665 675 699 l 675 426 m 567 654 q 548 698 567 679 q 504 717 529 717 l 347 717 q 303 699 321 717 q 285 654 285 681 l 285 538 l 567 538 l 567 654 z "}}}
